<svg width="346" height="240" viewBox="0 0 346 240" fill="none" xmlns="http://www.w3.org/2000/svg">
<g clip-path="url(#clip0_3_24)">
<path d="M40.7057 207.626C40.7057 207.626 -3.17597 187.425 12.2396 173.415C27.6552 159.406 40.7057 207.626 40.7057 207.626Z" fill="#E6E6E6"/>
<path d="M39.9418 212.34C39.9418 212.34 19.7721 146.068 49.4726 149.238C79.1731 152.407 39.9418 212.34 39.9418 212.34Z" fill="#E6E6E6"/>
<path d="M25.2361 206.462L26.0825 217.548L26.0959 217.739C26.0948 219.471 26.1819 221.202 26.357 222.924C27.506 234.232 32.444 239.385 38.2153 239.385C43.9867 239.385 48.7098 234.232 49.8587 222.924C50.0339 221.201 50.121 219.47 50.1198 217.739L50.1266 217.584L50.1299 217.547L50.9797 206.461L25.2361 206.462Z" fill="#E6E6E6"/>
<path d="M50.1318 217.548L50.1284 217.585L50.1217 217.74C50.1229 219.471 50.0357 221.202 49.8606 222.925H26.3589C26.1838 221.202 26.0966 219.471 26.0978 217.74L26.0844 217.548L50.1318 217.548Z" fill="white"/>
<path d="M326.915 214.405C326.915 214.405 292.941 198.765 304.876 187.919C316.811 177.073 326.915 214.405 326.915 214.405Z" fill="#E6E6E6"/>
<path d="M326.323 218.055C326.323 218.055 310.707 166.747 333.703 169.2C356.698 171.654 326.323 218.055 326.323 218.055Z" fill="#E6E6E6"/>
<path d="M314.937 213.504L315.593 222.087L315.603 222.237C315.603 223.577 315.67 224.916 315.806 226.25C316.696 235.004 320.519 238.994 324.987 238.994C329.455 238.994 333.112 235.002 334.002 226.25C334.138 224.916 334.205 223.577 334.205 222.237L334.21 222.117L334.212 222.088L334.871 213.505L314.937 213.504Z" fill="#E6E6E6"/>
<path d="M334.212 222.087L334.21 222.116L334.205 222.236C334.205 223.576 334.138 224.916 334.002 226.249H315.806C315.67 224.916 315.603 223.576 315.603 222.236L315.593 222.087L334.212 222.087Z" fill="white"/>
<path d="M114.875 71.755V56.6777H112.53V71.755C111.858 72.027 111.301 72.5245 110.955 73.1621C110.609 73.7997 110.496 74.5377 110.634 75.2497C110.773 75.9617 111.155 76.6033 111.715 77.0647C112.274 77.526 112.977 77.7783 113.703 77.7783C114.428 77.7783 115.131 77.526 115.69 77.0647C116.25 76.6033 116.632 75.9617 116.771 75.2497C116.909 74.5377 116.796 73.7997 116.45 73.1621C116.104 72.5245 115.547 72.027 114.875 71.755Z" fill="#E6E6E6"/>
<path d="M120.345 223.913H104.326V29.3263H98.0733V223.913H82.0549C80.1562 223.912 78.2762 224.286 76.522 225.013C74.7678 225.739 73.1739 226.804 71.8312 228.146C70.4886 229.489 69.4235 231.083 68.6969 232.837C67.9702 234.591 67.5962 236.471 67.5961 238.37H134.803C134.803 234.535 133.28 230.858 130.569 228.147C127.857 225.435 124.18 223.912 120.346 223.912L120.345 223.913Z" fill="#E6E6E6"/>
<path d="M67.6286 58.2404H134.77L130.664 6.92137C130.514 5.15188 129.707 3.50258 128.402 2.29792C127.097 1.09325 125.389 0.420421 123.613 0.411774H78.7852C77.0093 0.420421 75.301 1.09325 73.9963 2.29792C72.6915 3.50258 71.8847 5.15188 71.7347 6.92137L67.6286 58.2404Z" fill="#386BF6"/>
<path d="M161.114 148.313C160.483 148.208 159.836 148.23 159.213 148.376C158.59 148.523 158.002 148.792 157.484 149.168C156.966 149.544 156.527 150.019 156.194 150.566C155.861 151.112 155.64 151.72 155.543 152.353L153.653 164.758L160.085 166.464L164.797 154.905C165.071 154.234 165.19 153.509 165.146 152.785C165.102 152.061 164.895 151.357 164.541 150.723C164.187 150.09 163.696 149.545 163.103 149.127C162.509 148.71 161.83 148.432 161.115 148.313L161.114 148.313Z" fill="#FFB9B9"/>
<path d="M160.994 164.735C164.563 178.919 163.027 191.892 149.736 202.08C133.794 197.685 123.191 187.083 116.722 171.673C116.32 170.715 116.116 169.686 116.122 168.646C116.129 167.607 116.346 166.58 116.761 165.628C117.175 164.675 117.779 163.816 118.534 163.103C119.29 162.39 120.182 161.837 121.158 161.478C122.623 160.939 124.217 160.859 125.729 161.249C127.241 161.639 128.598 162.479 129.62 163.659L145.262 181.714L152.6 163.51L160.994 164.735Z" fill="#386BF6"/>
<path d="M242.673 239.154C228.117 238.381 219.075 233.383 216.885 223.134L219.23 218.836L246.071 231.063C246.749 231.372 247.319 231.875 247.71 232.509C248.101 233.143 248.295 233.878 248.267 234.622C248.238 235.367 247.989 236.085 247.551 236.688C247.113 237.29 246.506 237.748 245.807 238.005L242.673 239.154Z" fill="#E6E6E6"/>
<path d="M231.426 239.257C223.863 239.028 216.59 239.099 209.698 239.565C208.489 239.648 207.296 239.25 206.378 238.459C205.46 237.668 204.892 236.547 204.795 235.339L204.381 230.167L198.521 220.789L203.6 215.709C212.137 224.211 221.499 231.353 232.617 235.598C232.975 235.843 233.243 236.196 233.383 236.607C233.522 237.017 233.525 237.461 233.391 237.873C233.257 238.285 232.993 238.642 232.639 238.891C232.285 239.141 231.859 239.269 231.426 239.256L231.426 239.257Z" fill="#E6E6E6"/>
<path d="M190.315 202.425C180.657 219.705 171.161 231.355 158.664 237.591C143.294 242.664 132.058 235.943 123.302 222.157L148.703 205.355L152.416 209.067L186.057 183.467C186.879 182.689 187.975 182.266 189.106 182.291C190.238 182.316 191.314 182.787 192.1 183.601L220.795 218.836L217.279 224.696L190.315 202.425Z" fill="#090814"/>
<path opacity="0.798" d="M198.911 222.743L185.626 202.425L188.751 196.564L206.334 214.928L198.911 222.743Z" fill="#090814"/>
<path d="M125.844 169.212L110.997 164.132C113.194 160.641 114.157 156.513 113.732 152.41H125.844C125.155 158.372 125.051 164.027 125.844 169.212Z" fill="#FFB9B9"/>
<path d="M153.819 211.268C151.593 212.182 155.105 208.646 153 209.653C142.825 214.521 132.06 218.471 124.671 225.478C107.403 213.752 91.3985 177.332 112.168 161.397C119.255 165.546 125.59 168.515 125.453 161.397L153.819 211.268Z" fill="#386BF6"/>
<path opacity="0.2" d="M148.506 189.139L141.278 186.6L127.016 197.736L120.623 174.719C120.179 173.123 119.461 173.932 118.429 175.041C117.354 174.046 116.016 173.379 114.575 173.119C113.133 172.859 111.646 173.017 110.291 173.574C108.936 174.13 107.768 175.063 106.925 176.261C106.082 177.46 105.6 178.874 105.534 180.338C104.772 197.034 109.808 211.158 122.327 221.961C138.702 218.455 145.651 207.392 148.506 193.047L147.732 192.531C148.018 191.422 148.276 190.292 148.506 189.139Z" fill="black"/>
<path d="M149.091 171.721L161.25 186.016L179.488 164.491L167.165 149.539L149.091 171.721Z" fill="#3F3D56"/>
<path d="M176.366 164.984L161.907 153.154C162.728 151.183 166.672 151.84 166.672 151.84L177.99 163.314C178.384 163.714 178.722 164.166 178.995 164.657L176.366 164.984Z" fill="#F2F2F2"/>
<path d="M177.022 164.163L160.591 151.347L142.353 178.952L159.526 190.534C161.168 191.191 162.813 190.041 162.813 190.041L179.572 164.409L177.022 164.163Z" fill="#3F3D56"/>
<path d="M162.643 155.348L162.487 155.564L173.003 163.127L173.158 162.911L162.643 155.348Z" fill="#386BF6"/>
<path d="M173.307 165.734L159.497 186.599L159.719 186.746L173.529 165.881L173.307 165.734Z" fill="#386BF6"/>
<path d="M146.87 179.006L146.712 179.22L157.882 187.439L158.04 187.224L146.87 179.006Z" fill="#386BF6"/>
<path d="M160.648 155.708L146.354 176.246L146.572 176.398L160.867 155.86L160.648 155.708Z" fill="#386BF6"/>
<path d="M165.064 151.677L164.953 151.798L177.955 163.731L178.066 163.61L165.064 151.677Z" fill="#B3B3B3"/>
<path d="M163.981 151.779L163.872 151.903L177.461 163.899L177.569 163.775L163.981 151.779Z" fill="#B3B3B3"/>
<path d="M163.13 152.019L163.025 152.145L177.128 163.898L177.234 163.771L163.13 152.019Z" fill="#B3B3B3"/>
<path d="M155.654 175.918C155.129 175.552 154.536 175.294 153.91 175.16C153.284 175.025 152.637 175.016 152.008 175.134C151.378 175.251 150.779 175.493 150.243 175.844C149.708 176.195 149.248 176.649 148.889 177.179L141.864 187.577L146.943 191.875L156.156 183.453C156.691 182.964 157.109 182.36 157.38 181.687C157.65 181.014 157.765 180.289 157.717 179.565C157.669 178.841 157.459 178.138 157.101 177.506C156.744 176.875 156.25 176.332 155.654 175.918Z" fill="#FFB9B9"/>
<path d="M148.506 190.703C145.651 205.048 138.702 216.111 122.327 219.617C109.808 208.813 104.772 194.689 105.534 177.994C105.581 176.956 105.838 175.939 106.29 175.003C106.741 174.067 107.378 173.232 108.16 172.549C108.943 171.866 109.857 171.349 110.845 171.028C111.833 170.708 112.876 170.591 113.911 170.685C115.466 170.826 116.941 171.437 118.14 172.437C119.338 173.437 120.204 174.779 120.622 176.283L127.015 199.3L141.448 185.999L148.506 190.703Z" fill="#386BF6"/>
<path d="M345.346 239.6H0.5V238.747H345.5L345.346 239.6Z" fill="#3F3D56"/>
<path d="M180.742 36.1668C180.535 36.1673 180.336 36.2498 180.19 36.3962C180.044 36.5427 179.961 36.7412 179.961 36.9483V97.9034C179.961 98.1105 180.044 98.309 180.19 98.4555C180.336 98.602 180.535 98.6845 180.742 98.6849H231.538C231.745 98.6845 231.943 98.602 232.09 98.4555C232.236 98.309 232.319 98.1105 232.319 97.9034V36.9483C232.319 36.7412 232.236 36.5427 232.09 36.3962C231.943 36.2498 231.745 36.1673 231.538 36.1668H180.742Z" fill="#E6E6E6"/>
<path d="M186.017 92.6278H226.264V42.2231H186.017V92.6278Z" fill="white"/>
<path d="M265.309 52.1871C265.186 52.1872 265.067 52.2364 264.979 52.3239C264.892 52.4114 264.843 52.53 264.843 52.6537V82.9795C264.843 83.1032 264.892 83.2219 264.979 83.3094C265.067 83.3969 265.186 83.446 265.309 83.4461H301.7C301.824 83.446 301.943 83.3969 302.03 83.3094C302.118 83.2219 302.167 83.1032 302.167 82.9795V52.6537C302.167 52.53 302.118 52.4114 302.03 52.3239C301.943 52.2364 301.824 52.1872 301.7 52.1871H265.309Z" fill="#E6E6E6"/>
<path d="M268.459 55.803V79.8318H298.552V55.803H268.459Z" fill="white"/>
<path d="M213.246 40.4642H199.033C198.69 40.4656 198.352 40.3761 198.054 40.205C197.756 40.0338 197.509 39.787 197.337 39.4895C197.166 39.1921 197.075 38.8545 197.076 38.511C197.077 38.1675 197.168 37.8303 197.341 37.5336L204.447 25.2254L204.465 25.1952C204.621 24.9334 204.836 24.7121 205.093 24.5492C205.35 24.3864 205.642 24.2866 205.945 24.2581H205.955C206.016 24.2525 206.078 24.2495 206.14 24.2495C206.483 24.2476 206.821 24.337 207.118 24.5087C207.415 24.6804 207.661 24.9282 207.831 25.2265L214.939 37.5343C215.11 37.8313 215.201 38.1682 215.201 38.5112C215.201 38.8541 215.111 39.191 214.939 39.488C214.768 39.785 214.521 40.0317 214.224 40.2032C213.927 40.3747 213.59 40.4649 213.247 40.4649L213.246 40.4642ZM198.641 38.5087C198.642 38.578 198.661 38.646 198.695 38.7061C198.729 38.7659 198.778 38.8156 198.838 38.85C198.897 38.8844 198.965 38.9022 199.033 38.9015H213.246C213.315 38.9022 213.383 38.8844 213.442 38.8501C213.502 38.8157 213.551 38.7659 213.585 38.7061C213.619 38.6461 213.638 38.5783 213.638 38.5091C213.638 38.4409 213.619 38.3741 213.585 38.3155L206.478 26.0073C206.444 25.9479 206.395 25.8986 206.335 25.8643C206.276 25.83 206.208 25.8119 206.14 25.8119C206.071 25.8119 206.004 25.83 205.944 25.8643C205.885 25.8986 205.836 25.9479 205.801 26.0073L198.695 38.3155C198.66 38.3741 198.642 38.4406 198.641 38.5087Z" fill="#E6E6E6"/>
<path d="M206.14 27.961C206.787 27.961 207.312 27.4362 207.312 26.7889C207.312 26.1415 206.787 25.6168 206.14 25.6168C205.492 25.6168 204.967 26.1415 204.967 26.7889C204.967 27.4362 205.492 27.961 206.14 27.961Z" fill="#E6E6E6"/>
<path d="M287.358 53.1637H279.653C279.467 53.1644 279.283 53.1159 279.122 53.0231C278.961 52.9303 278.827 52.7966 278.733 52.6353C278.64 52.474 278.591 52.291 278.592 52.1048C278.592 51.9186 278.642 51.7358 278.735 51.5749L282.588 44.9019L282.598 44.8855C282.682 44.7436 282.799 44.6236 282.938 44.5353C283.077 44.447 283.236 44.3929 283.4 44.3774H283.406C283.438 44.3744 283.472 44.3729 283.506 44.3729C283.692 44.3719 283.875 44.4204 284.036 44.5135C284.197 44.6066 284.331 44.7409 284.423 44.9027L288.277 51.5749C288.37 51.736 288.419 51.9188 288.419 52.1048C288.419 52.2909 288.37 52.4736 288.277 52.6346C288.183 52.7957 288.05 52.9293 287.888 53.0222C287.727 53.1151 287.544 53.1639 287.358 53.1637ZM279.44 52.1035C279.44 52.1411 279.45 52.178 279.469 52.2106C279.488 52.243 279.514 52.27 279.547 52.2886C279.579 52.3073 279.616 52.3169 279.653 52.3165H287.358C287.396 52.3169 287.432 52.3073 287.465 52.2886C287.497 52.27 287.524 52.243 287.542 52.2106C287.561 52.1781 287.571 52.1413 287.571 52.1039C287.571 52.067 287.561 52.0308 287.542 51.999L283.689 45.3253C283.67 45.2931 283.643 45.2663 283.611 45.2477C283.579 45.2291 283.542 45.2193 283.505 45.2193C283.468 45.2193 283.431 45.2291 283.399 45.2477C283.367 45.2663 283.34 45.2931 283.322 45.3253L279.469 51.9983C279.45 52.03 279.44 52.0662 279.44 52.1031L279.44 52.1035Z" fill="#E6E6E6"/>
<path d="M283.506 46.3851C283.857 46.3851 284.141 46.1005 284.141 45.7495C284.141 45.3984 283.857 45.1138 283.506 45.1138C283.155 45.1138 282.87 45.3984 282.87 45.7495C282.87 46.1005 283.155 46.3851 283.506 46.3851Z" fill="#E6E6E6"/>
<path d="M186.477 73.4356C187.039 72.1463 187.857 70.9849 188.883 70.0224C189.908 69.0599 191.119 68.3164 192.441 67.8373C193.816 67.3066 195.289 67.0791 196.76 67.1706C198.231 67.2621 199.665 67.6704 200.963 68.3674C204.012 69.9857 206.45 72.5298 209.547 74.0787C212.558 75.5705 215.871 76.351 219.232 76.3602C223.037 76.3895 226.782 75.4168 230.091 73.54C230.221 73.4591 230.313 73.3311 230.35 73.183C230.386 73.035 230.364 72.8786 230.287 72.7469C230.21 72.6153 230.085 72.5188 229.938 72.4779C229.791 72.4371 229.634 72.455 229.5 72.5279C226.5 74.2089 223.131 75.1217 219.693 75.1847C216.255 75.2478 212.854 74.4593 209.795 72.8894C206.688 71.2604 204.227 68.63 201.062 67.1039C199.718 66.4519 198.259 66.073 196.767 65.9894C195.276 65.9057 193.784 66.1188 192.375 66.6163C190.81 67.1415 189.373 67.9931 188.162 69.1149C186.95 70.2367 185.99 71.6031 185.346 73.1237C185.062 73.822 186.195 74.1257 186.476 73.4352L186.477 73.4356Z" fill="#E6E6E6"/>
<path d="M185.551 84.3925C192.056 82.9402 198.804 82.9635 205.299 84.4608C211.069 85.7989 217.025 88.2061 222.973 86.4107C225.631 85.6087 228.067 84.0042 229.432 81.5354C229.797 80.8747 228.785 80.2827 228.42 80.9438C225.849 85.5922 219.827 86.3768 215.07 85.6139C211.892 85.1043 208.828 84.0822 205.7 83.351C198.974 81.7742 191.978 81.7437 185.239 83.2618C184.503 83.4267 184.815 84.557 185.551 84.3925Z" fill="#E6E6E6"/>
<path d="M185.129 58.1908C191.366 57.1299 197.755 57.3572 203.901 58.8586C209.643 60.2653 215.255 63.4794 221.327 62.9247C224.137 62.6677 226.92 61.634 228.83 59.4838C229.329 58.9212 228.503 58.0893 228.001 58.6549C226.353 60.51 223.981 61.4713 221.547 61.731C218.741 62.0294 215.984 61.449 213.313 60.623C210.356 59.7087 207.484 58.5504 204.478 57.7946C198.048 56.1802 191.352 55.9303 184.819 57.0612C184.077 57.1881 184.392 58.3176 185.131 58.1916L185.129 58.1908Z" fill="#E6E6E6"/>
<path d="M273.699 55.4087C276.394 58.1684 278.253 61.6345 279.061 65.4062C279.682 68.4067 279.612 71.5093 278.856 74.4787C278.1 77.4481 276.677 80.2063 274.697 82.5441C274.212 83.116 275.036 83.949 275.525 83.373C278.224 80.1941 279.946 76.3038 280.487 72.1695C280.881 68.978 280.55 65.7388 279.518 62.6932C278.486 59.6475 276.78 56.8741 274.527 54.5794C273.998 54.04 273.169 54.8689 273.698 55.4083L273.699 55.4087Z" fill="#E6E6E6"/>
<path d="M291.286 52.9052C287.694 55.54 285.683 59.7927 285.4 64.1916C285.106 68.7684 286.851 73.1886 289.662 76.7422C291.302 78.7883 293.261 80.5567 295.464 81.9793C296.098 82.3934 296.685 81.3791 296.055 80.9673C292.467 78.619 289.396 75.2836 287.765 71.2805C286.97 69.3789 286.558 67.3391 286.552 65.2779C286.546 63.2167 286.947 61.1746 287.731 59.2685C288.61 57.146 290.042 55.2982 291.878 53.918C292.48 53.4763 291.896 52.4586 291.286 52.9059V52.9052Z" fill="#E6E6E6"/>
<path d="M208.875 64.6903C211.896 64.6903 214.345 62.2412 214.345 59.22C214.345 56.1989 211.896 53.7498 208.875 53.7498C205.854 53.7498 203.405 56.1989 203.405 59.22C203.405 62.2412 205.854 64.6903 208.875 64.6903Z" fill="#E6E6E6"/>
<path d="M120.89 158.071C128.354 158.595 134.829 152.968 135.353 145.504C135.876 138.04 130.25 131.565 122.785 131.041C115.321 130.518 108.846 136.144 108.322 143.608C107.799 151.072 113.425 157.548 120.89 158.071Z" fill="#FFB9B9"/>
<path d="M100.989 138.245C107.592 138.708 113.32 133.73 113.783 127.127C114.247 120.524 109.269 114.795 102.666 114.332C96.0625 113.869 90.334 118.847 89.8709 125.45C89.4077 132.053 94.3853 137.782 100.989 138.245Z" fill="#090814"/>
<path d="M90.8194 135.466C92.2885 136.692 94.0298 137.549 95.8978 137.965C97.7658 138.38 99.7061 138.342 101.556 137.854C103.407 137.367 105.114 136.443 106.534 135.16C107.954 133.878 109.047 132.274 109.72 130.483C109.4 132.109 108.745 133.651 107.799 135.011C106.852 136.372 105.633 137.521 104.22 138.386C102.806 139.252 101.229 139.815 99.5865 140.04C97.9444 140.265 96.2735 140.146 94.6794 139.693C93.0852 139.239 91.6025 138.46 90.3248 137.404C89.0472 136.348 88.0023 135.039 87.2563 133.559C86.5102 132.079 86.0792 130.461 85.9905 128.806C85.9017 127.151 86.1572 125.495 86.7407 123.944C86.3239 126.054 86.4827 128.237 87.2004 130.264C87.918 132.291 89.1681 134.088 90.8194 135.466Z" fill="#090814"/>
<path d="M138.004 138.786C136.179 134.904 135.49 133.289 132.958 130.824C130.719 128.647 127.833 127.852 125.338 129.59C122.554 128.135 119.368 127.64 116.274 128.182C113.18 128.724 110.352 130.273 108.228 132.587C106.105 134.902 104.805 137.853 104.531 140.982C104.258 144.111 105.025 147.243 106.714 149.891C108.403 152.539 110.919 154.556 113.872 155.627C116.824 156.698 120.048 156.764 123.042 155.815C126.037 154.866 128.633 152.954 130.43 150.377C132.226 147.801 133.121 144.703 132.975 141.565C135.048 141.422 135.931 138.933 138.004 138.786Z" fill="#090814"/>
</g>
<defs>
<clipPath id="clip0_3_24">
<rect width="345" height="239.188" fill="white" transform="translate(0.5 0.411774)"/>
</clipPath>
</defs>
</svg>
