<svg width="300" height="231" viewBox="0 0 300 231" fill="none" xmlns="http://www.w3.org/2000/svg">
<g clip-path="url(#clip0_17_357)">
<path d="M279.703 198.541L280.216 187.011C285.562 184.153 291.524 182.644 297.586 182.614C289.244 189.434 290.286 202.582 284.63 211.754C282.844 214.601 280.44 217.01 277.597 218.802C274.754 220.594 271.543 221.723 268.204 222.105L261.223 226.38C260.265 221.039 260.476 215.555 261.842 210.304C263.208 205.053 265.696 200.16 269.134 195.964C271.087 193.628 273.325 191.548 275.798 189.772C277.47 194.181 279.703 198.541 279.703 198.541Z" fill="#F2F2F2"/>
<path d="M173.838 229.25C170.283 228.997 169.355 229.698 163.975 229.25H154.113L155.396 205.647L170.923 211.869L248.084 213.763L248.038 213.894C248.003 213.995 244.578 224.016 247.255 227.81L247.366 227.967L247.15 227.969L176.367 228.618C175.594 228.625 174.605 229.304 173.838 229.25Z" fill="#F2F2F2"/>
<path d="M177.841 229.558C170.972 229.07 163.859 231.74 157.923 228.725L153.178 229.013L153.164 228.973C153.128 228.863 150.886 211.226 155.418 204.388L155.617 204.086L155.773 205.706L154.279 227.677L157.59 226.572C165.632 230.357 175.195 227.858 184.399 227.823L247.035 227.591C248.347 227.587 249.44 228.483 249.475 229.59L249.478 229.698L181.624 229.693C180.359 229.693 179.097 229.648 177.841 229.558Z" fill="#CCCCCC"/>
<path d="M243.733 218.523L173.246 217.122L173.174 217.095L156.521 210.854L156.835 210.014L173.417 216.229L243.751 217.627L243.733 218.523Z" fill="#E6E6E6"/>
<path d="M243.357 222.298L172.87 220.897L172.798 220.87L156.144 214.628L156.459 213.789L173.041 220.004L243.375 221.401L243.357 222.298Z" fill="#E6E6E6"/>
<path d="M242.981 226.072L172.494 224.671L172.422 224.644L155.768 218.402L156.083 217.562L172.665 223.778L242.999 225.176L242.981 226.072Z" fill="#E6E6E6"/>
<path d="M178.327 214.007C171.792 213.565 165.42 211.767 159.618 208.728L154.732 206.136L154.86 204.855C154.895 204.667 154.999 204.499 155.151 204.383C155.304 204.267 155.493 204.211 155.684 204.227L156.115 204.232L221.851 205.199C226.153 205.253 230.416 206.027 234.463 207.489L248.786 212.688L248.778 212.764C248.658 213.971 247.441 214.904 246.007 214.887L181.256 214.128C180.276 214.117 179.3 214.076 178.327 214.007Z" fill="#E6E6E6"/>
<path d="M248.648 212.966L248.633 212.965L169.804 211.159L169.75 211.134L155.537 204.552L155.682 204.332L156.113 204.337L169.936 210.742L248.034 212.53L248.66 212.544L248.648 212.966Z" fill="#CCCCCC"/>
<path d="M187.366 204.798L186.365 204.784L163.774 204.449L162.703 204.435C167.865 209.93 179.278 211.305 196.008 209.176L187.366 204.798Z" fill="#CCCCCC"/>
<path d="M250.882 73.3585L252.26 76.5644L250.008 87.9493L227.029 84.7546L227.213 70.8717L227.674 67.8312L250.882 73.3585Z" fill="#FFB6B6"/>
<path d="M262.754 220.911H257.684L255.271 201.358H262.754V220.911Z" fill="#FFB6B6"/>
<path d="M247.674 227.529C247.675 228.104 247.903 228.654 248.309 229.06C248.715 229.466 249.266 229.695 249.84 229.695H259.485L261.147 226.263L261.793 229.695H265.428L264.406 217.437L262.754 217.341L257.202 217.01L256.307 216.954V220.427L248.61 225.745C248.321 225.944 248.085 226.211 247.922 226.522C247.759 226.833 247.674 227.178 247.674 227.529Z" fill="#2F2E41"/>
<path d="M215.897 198.496H210.827L207.845 169.708L217.371 169.139L215.897 198.496Z" fill="#FFB6B6"/>
<path d="M200.817 205.114C200.818 205.688 201.046 206.238 201.452 206.645C201.858 207.051 202.409 207.279 202.983 207.279H212.628L214.29 203.848L214.936 207.279H218.571L217.549 195.022L216.075 194.935L210.426 194.595L209.45 194.539V198.011L201.753 203.329C201.464 203.529 201.228 203.795 201.065 204.106C200.902 204.417 200.817 204.763 200.817 205.114Z" fill="#2F2E41"/>
<path d="M264.906 204.049H264.886L263.911 172.255C264.542 171.038 264.862 169.684 264.843 168.314C264.824 166.943 264.466 165.598 263.802 164.399L263.662 164.147L264.024 162.469C264.489 160.313 264.276 158.067 263.413 156.038L262.504 126.38C265.753 105.321 250.268 91.5868 250.268 91.5868L251.691 80.5491L226.643 81.1184L227.069 91.5868L222.089 108.698C219.468 134.234 201.828 150.284 204.509 174.704C204.515 174.774 204.504 174.844 204.479 174.91C204.207 175.737 204.111 176.612 204.197 177.479C204.284 178.345 204.552 179.184 204.982 179.941C205.094 180.134 205.17 180.345 205.209 180.565C205.761 184.846 205.833 179.431 206.565 183.674L206.423 183.746C205.91 183.923 205.69 184.633 205.931 185.333C206.173 186.032 206.784 186.456 207.297 186.279L220.687 186.422C221.2 186.245 221.42 185.534 221.178 184.835C220.937 184.136 220.325 183.712 219.813 183.889L218.98 184.31L220.373 179.751L220.862 179.295C221.096 179.076 221.277 178.808 221.393 178.509C221.509 178.21 221.555 177.889 221.529 177.57C221.503 177.251 221.405 176.942 221.243 176.666C221.081 176.39 220.858 176.154 220.592 175.976L221.98 168.567L221.783 162.963L222.189 156.606L239.758 131.148L246.866 166.313L254.127 204.403C253.957 204.556 253.83 204.75 253.757 204.966C253.684 205.182 253.668 205.413 253.71 205.637C253.777 205.95 253.951 206.231 254.201 206.43C254.452 206.629 254.764 206.735 255.085 206.729H264.941C265.148 206.729 265.351 206.681 265.537 206.589C265.722 206.497 265.883 206.363 266.008 206.199C266.133 206.035 266.219 205.843 266.258 205.64C266.297 205.438 266.289 205.228 266.234 205.029C266.151 204.743 265.976 204.492 265.736 204.314C265.495 204.137 265.204 204.044 264.906 204.049Z" fill="#2F2E41"/>
<path d="M256.14 19.2589C256.141 21.2888 255.644 23.2878 254.691 25.0805C253.739 26.8733 252.362 28.4048 250.679 29.5408C248.997 30.6768 247.062 31.3824 245.043 31.5958C243.024 31.8092 240.984 31.5237 239.102 30.7646C237.219 30.0054 235.551 28.7957 234.246 27.2417C232.94 25.6876 232.035 23.8368 231.611 21.8515C231.188 19.8663 231.258 17.8075 231.816 15.8557C232.374 13.904 233.402 12.119 234.811 10.6574L234.87 10.598C234.969 10.4938 235.069 10.3896 235.173 10.2904L235.175 10.29L235.176 10.2889L235.177 10.2873L235.178 10.2854C235.32 10.1816 235.451 10.0636 235.57 9.93323C237.244 7.5939 239.142 5.63234 243.739 6.8578C250.359 8.62208 256.14 12.4085 256.14 19.2589Z" fill="#2F2E41"/>
<path d="M188.019 13.9501C187.991 14.6136 188.108 15.2752 188.364 15.8882C188.619 16.5013 189.005 17.051 189.496 17.4985C189.987 17.946 190.569 18.2805 191.203 18.4784C191.837 18.6763 192.507 18.7329 193.165 18.644L225.146 44.8912L230.031 36.305L197.059 13.2048C196.836 12.1091 196.219 11.1331 195.325 10.4618C194.431 9.79043 193.322 9.47037 192.208 9.56223C191.093 9.6541 190.051 10.1515 189.279 10.9602C188.507 11.769 188.059 12.8328 188.019 13.9501Z" fill="#FFB6B6"/>
<path d="M238.651 52.6318C238.651 52.6318 238.641 51.6865 233.557 51.7229C227.246 51.768 209.866 42.7077 211.386 34.1748C210.664 34.5009 209.854 34.5777 209.084 34.393C208.314 34.2082 207.627 33.7725 207.132 33.1543L215.593 25.0078C218.248 25.1871 218.275 26.9638 218.048 27.984L224.848 30.6861L242.559 40.8615L239.432 51.0825L238.651 52.6318Z" fill="#386BF6"/>
<path d="M240.684 32.5269C246.427 32.5269 251.083 27.8712 251.083 22.1281C251.083 16.385 246.427 11.7293 240.684 11.7293C234.941 11.7293 230.285 16.385 230.285 22.1281C230.285 27.8712 234.941 32.5269 240.684 32.5269Z" fill="#FFB7B7"/>
<path d="M226.392 73.8507C225.818 74.6173 225.524 75.5581 225.561 76.5153C225.598 77.4725 225.963 78.3878 226.595 79.1077C226.6 79.4127 226.646 79.7076 227.078 80.8008C227.135 80.9067 227.201 81.0072 227.277 81.1007C227.291 81.1235 227.306 81.1456 227.322 81.1668C227.778 81.7555 228.411 82.1817 229.127 82.3819L248.162 87.6949L250.679 88.3964L251.121 88.5185L251.365 85.0816C251.931 84.6124 252.311 83.9562 252.435 83.2316C252.559 82.507 252.419 81.7619 252.041 81.1312L251.691 80.5516L253.735 75.0557L253.933 74.5116L259.144 60.4845L259.149 59.549L259.159 58.583L259.21 51.8414C259.213 49.7167 258.723 47.6203 257.779 45.7167C256.835 43.8131 255.463 42.1541 253.77 40.8699C252.228 39.6918 250.451 38.8594 248.559 38.4295L248.518 38.4244L246.459 35.6535L238.106 36.4873L237.414 37.9058L236.576 39.6141L230.52 43.2187L228.451 48.0283L227.053 51.2822C224.887 52.838 223.596 54.836 223.225 57.2154C222.431 62.2691 225.97 67.3278 226.392 67.9074L226.499 73.7084L226.392 73.8507Z" fill="#386BF6"/>
<path d="M251.567 24.8542C251.473 24.8393 251.378 24.8195 251.284 24.8046C249.662 24.5169 248.04 24.2342 246.423 23.9415L246.274 20.2758L244.315 23.5595C239.845 25.0427 235.664 24.2044 231.73 22.3542C230.433 21.7382 229.174 21.0441 227.96 20.2758C227.561 14.0762 230.067 10.1073 234.731 10.5236C234.902 10.5388 235.024 10.3649 235.173 10.2904L235.175 10.29L235.176 10.2889L235.177 10.2873L235.178 10.2854C235.431 10.1664 235.689 10.0523 235.946 9.94814C237.966 9.15895 240.168 8.95909 242.296 9.37178C244.425 9.78448 246.392 10.7928 247.971 12.2795C251.145 15.3104 252.574 20.3154 251.567 24.8542Z" fill="#2F2E41"/>
<path d="M251.284 24.8046C251.284 24.8046 248.204 13.3063 234.999 10.6525C234.984 10.6476 234.935 10.6277 234.87 10.598C234.83 10.5732 234.781 10.5483 234.731 10.5236C234.88 10.4392 235.024 10.3649 235.173 10.2904L235.175 10.29L235.176 10.2889L235.177 10.2873L235.178 10.2854C235.307 10.1664 235.436 10.0473 235.57 9.93324L235.946 9.94814C235.946 9.94814 249.196 7.84988 251.284 24.8046Z" fill="#FD6584"/>
<path d="M256.364 97.2869C256.119 97.4959 255.822 97.6337 255.505 97.6851C255.187 97.7365 254.861 97.6995 254.563 97.5783C253.971 97.3268 253.444 96.9417 253.025 96.4529C251.314 94.6586 250.092 92.456 249.475 90.0551L250.046 89.0403C249.822 87.7889 250.032 86.4985 250.643 85.3833C251.253 84.2681 252.227 83.3951 253.402 82.9094C254.07 82.6259 254.811 82.5615 255.519 82.7253C255.869 82.8125 256.19 82.9927 256.447 83.2471C256.704 83.5014 256.887 83.8204 256.977 84.1704C257.197 85.2559 256.293 86.2361 255.377 86.8593C253.782 87.9422 251.937 88.6021 250.017 88.7772C252.366 90.1011 254.396 91.9233 255.966 94.1158C256.329 94.5731 256.596 95.0984 256.753 95.6608C256.828 95.9428 256.832 96.2391 256.764 96.523C256.696 96.8069 256.559 97.0694 256.364 97.2869Z" fill="#2F2E41"/>
<path d="M124.921 230.064H299.441C299.589 230.064 299.731 230.005 299.836 229.9C299.941 229.796 300 229.653 300 229.505C300 229.357 299.941 229.215 299.836 229.11C299.731 229.005 299.589 228.946 299.441 228.946H124.921C124.773 228.946 124.631 229.005 124.526 229.11C124.421 229.215 124.362 229.357 124.362 229.505C124.362 229.653 124.421 229.796 124.526 229.9C124.631 230.005 124.773 230.064 124.921 230.064Z" fill="#CCCCCC"/>
<path d="M171.27 86.3395V86.6316C170.641 85.895 170 85.1648 169.365 84.4345C169.098 84.1297 168.832 83.825 168.565 83.5202C167.434 82.2375 166.298 80.959 165.155 79.6848C164.006 78.4148 162.856 77.1448 161.694 75.8812C161.415 75.5764 161.135 75.2716 160.85 74.9668C160.621 74.7107 160.372 74.4728 160.107 74.2555C159.838 74.0324 159.53 73.8621 159.199 73.7539C158.817 73.6481 158.414 73.6437 158.03 73.7412C157.592 73.8429 157.173 74.0016 156.748 74.1349C156.309 74.281 155.878 74.4207 155.439 74.5603C154.563 74.8461 153.693 75.1319 152.817 75.4176C152.806 75.4219 152.795 75.4241 152.784 75.424C152.772 75.4239 152.761 75.4216 152.75 75.4172C152.74 75.4128 152.73 75.4063 152.722 75.3982C152.714 75.3901 152.708 75.3805 152.704 75.3699L152.703 75.3668C152.698 75.3548 152.695 75.3418 152.696 75.3288C152.696 75.3158 152.7 75.3031 152.706 75.2916C152.712 75.28 152.721 75.27 152.731 75.2621C152.741 75.2543 152.753 75.2489 152.766 75.2462C152.982 75.1763 153.204 75.1065 153.427 75.0366C154.309 74.7445 155.185 74.4588 156.068 74.1731C156.506 74.027 156.944 73.8873 157.383 73.7476C157.789 73.5932 158.218 73.5074 158.653 73.4936C159.362 73.5446 160.027 73.8568 160.519 74.3699C160.792 74.6239 161.04 74.8905 161.288 75.1636C161.58 75.4811 161.872 75.7986 162.164 76.1161C163.339 77.3989 164.505 78.6858 165.663 79.9769C166.825 81.2723 167.976 82.5698 169.117 83.8694C169.2 83.9647 169.282 84.06 169.365 84.1552C170.006 84.879 170.635 85.6093 171.27 86.3395Z" fill="white"/>
<path d="M160.008 75.4255C159.768 75.1164 159.449 74.8788 159.083 74.7383L158.722 74.751C161.556 79.1611 165.269 82.9395 169.629 85.8501C166.422 82.3752 163.215 78.9004 160.008 75.4255Z" fill="white"/>
<path d="M219.154 121.257L204.769 44.2321C204.523 42.9624 203.852 41.814 202.868 40.9751C201.883 40.1363 200.643 39.6568 199.351 39.6153C199.234 39.6128 199.118 39.6128 199.002 39.6153L189.202 39.9669L188.147 40.0056L183.256 40.1814L182.202 40.2176L179.056 40.3314L115.621 42.6087C115.525 42.6139 115.427 42.6139 115.331 42.6113L101.116 42.314L95.8558 42.2055L95.6878 42.2029L91.8052 42.1202L57.973 41.417L49.0032 41.2283L44.5802 41.1379L43.5204 41.1146L38.4771 41.0112L37.4199 40.9879L32.2603 40.8819L31.203 40.8587L25.5341 40.7397L24.6449 40.7217L19.5887 40.6157L18.79 40.6002H18.6736C17.3313 40.6056 16.0342 41.0855 15.0114 41.9549C13.9887 42.8244 13.3064 44.0274 13.0849 45.3514L0.0747285 125.279C-0.0573891 126.088 -0.0119026 126.917 0.208027 127.708C0.427956 128.498 0.817062 129.231 1.34842 129.856C1.87977 130.481 2.54065 130.983 3.28528 131.327C4.02991 131.672 4.84049 131.85 5.66086 131.85H80.377C81.4767 131.853 82.5469 132.206 83.4324 132.858L84.849 133.907C85.8253 134.626 87.005 135.015 88.2172 135.019C102.648 131.21 117.819 131.21 132.25 135.019C132.994 135.021 133.731 134.875 134.418 134.59C135.105 134.305 135.729 133.887 136.254 133.359C137.151 132.463 138.348 131.93 139.614 131.863L213.886 127.949C214.691 127.907 215.478 127.693 216.194 127.322C216.911 126.951 217.539 126.431 218.038 125.798C218.537 125.164 218.894 124.431 219.087 123.648C219.279 122.865 219.302 122.049 219.154 121.257Z" fill="#CCCCCC"/>
<path d="M198.8 109.245C198.705 111.856 197.577 114.321 195.665 116.1C193.752 117.879 191.211 118.825 188.601 118.732C184.288 118.579 179.142 118.503 173.556 118.62C155.314 119.01 132.396 121.52 118.611 130.549C116.878 131.687 114.831 132.248 112.76 132.154C112.608 132.145 112.46 132.136 112.307 132.123C110.161 131.927 108.138 131.03 106.551 129.572C98.9566 122.623 81.5396 114.208 41.6711 113.616C41.5052 113.616 41.3438 113.608 41.1825 113.599C39.8912 113.517 38.6285 113.182 37.4668 112.613C36.305 112.043 35.2668 111.25 34.4116 110.28C33.5565 109.309 32.901 108.179 32.4828 106.954C32.0645 105.73 31.8917 104.435 31.9741 103.144L35.8924 40.9584L36.4797 31.6379L37.5108 15.3328C37.6148 13.6907 38.34 12.1498 39.539 11.0232C40.7381 9.89656 42.3212 9.26867 43.9665 9.26709H44.0068L67.7585 9.40607C77.7648 9.85886 86.0526 11.1336 92.6219 13.2302C94.8659 13.926 97.049 14.8047 99.1494 15.8573C102.018 17.2481 104.596 19.1728 106.744 21.5285C108.082 23.0333 109.907 24.0189 111.899 24.3125C112.208 24.3586 112.52 24.3871 112.832 24.3977C114.669 24.4737 116.482 23.9548 118.001 22.9182C133.517 12.5219 165.137 11.7328 182.598 12.1811C185.04 12.2381 187.374 13.2021 189.144 14.8852C190.914 16.5684 191.994 18.8503 192.174 21.2864L192.883 30.562L193.587 39.8107L197.648 93.2631L198.778 108.134C198.806 108.504 198.813 108.875 198.8 109.245Z" fill="#F2F2F2"/>
<path d="M47.5801 31.1492C61.8934 26.5825 77.8619 27.7915 91.4218 34.225C95.2908 36.0511 98.9448 38.3017 102.316 40.9352C103.27 41.6838 104.628 40.3448 103.663 39.5882C91.209 29.9281 75.5601 25.3391 59.861 26.7432C55.5178 27.1318 51.23 27.9933 47.0736 29.3122C45.9101 29.6834 46.4074 31.5233 47.5801 31.1492Z" fill="#3F3D56"/>
<path d="M126.341 41.6742C139.649 34.6795 155.585 33.1542 170.054 37.1247C174.179 38.2539 178.165 39.8389 181.939 41.8504C183.021 42.4274 183.984 40.7835 182.901 40.2055C169.111 32.8473 152.557 31.1534 137.498 35.2552C133.297 36.4015 129.234 38.0023 125.38 40.0293C124.294 40.5999 125.256 42.2446 126.341 41.6742Z" fill="#3F3D56"/>
<path d="M126.341 54.3741C139.649 47.3794 155.585 45.8541 170.054 49.8246C174.179 50.9538 178.165 52.5388 181.939 54.5503C183.021 55.1273 183.984 53.4834 182.901 52.9054C169.111 45.5471 152.557 43.8533 137.498 47.9551C133.297 49.1014 129.234 50.7022 125.38 52.7292C124.294 53.2998 125.256 54.9445 126.341 54.3741Z" fill="#3F3D56"/>
<path d="M183.367 66.3927C183.377 66.2292 183.338 66.0664 183.254 65.9256C183.17 65.7848 183.046 65.6724 182.898 65.6031C171.85 59.8185 159.325 57.4723 146.933 58.8665C146.855 58.8728 146.784 58.8852 146.7 58.8914H146.697C146.62 58.8982 146.545 58.9097 146.47 58.9256C139.099 59.7738 131.949 61.9776 125.38 65.4259C125.237 65.5112 125.118 65.6323 125.036 65.7773C124.954 65.9223 124.911 66.0861 124.911 66.2528V89.9443C124.913 90.0901 124.949 90.2334 125.015 90.3634C125.081 90.4935 125.175 90.6068 125.291 90.6949C125.408 90.7829 125.542 90.8434 125.685 90.8717C125.828 90.9 125.976 90.8954 126.117 90.8582C126.409 90.7743 126.702 90.6935 127 90.6158C133.641 88.8182 140.458 87.7518 147.331 87.4355C147.477 87.4293 147.623 87.4231 147.775 87.4169C153.373 87.1764 158.981 87.3781 164.547 88.0199C164.663 88.0265 164.78 88.039 164.895 88.0572C165.181 88.0883 165.473 88.1225 165.759 88.1598C165.874 88.1723 165.983 88.1847 166.089 88.2033C167.202 88.3432 168.305 88.5018 169.412 88.6728C171.01 88.9277 172.608 89.2116 174.206 89.5246C174.305 89.5432 174.408 89.5681 174.51 89.5868C177.075 90.0966 179.627 90.6872 182.167 91.34C182.308 91.3765 182.456 91.3804 182.599 91.3515C182.743 91.3225 182.877 91.2614 182.993 91.1728C183.11 91.0842 183.204 90.9704 183.27 90.84C183.336 90.7096 183.371 90.5659 183.373 90.4199V66.43C183.374 66.4172 183.372 66.4044 183.367 66.3927Z" fill="#3F3D56"/>
<path d="M148.426 60.1584C147.729 59.8166 146.929 59.7463 146.182 59.9612C145.852 60.0849 145.55 60.2729 145.293 60.5142C145.037 60.7556 144.831 61.0455 144.687 61.3672C144.428 61.984 144.262 62.6358 144.195 63.3013C144.155 63.5631 144.153 63.8934 144.416 64.0156C144.511 64.0502 144.615 64.0581 144.714 64.0384C144.814 64.0187 144.906 63.9721 144.981 63.9036C145.117 63.7697 145.229 63.6135 145.312 63.4417C145.769 62.7309 146.398 62.1468 147.14 61.7432C147.883 61.3396 148.715 61.1296 149.56 61.1325L150.263 61.4129C149.71 60.9145 149.092 60.4926 148.426 60.1584Z" fill="#FF6582"/>
<path d="M156.038 65.6189C155.492 64.8154 154.846 63.9576 153.833 63.6952C152.66 63.3914 151.455 63.9949 150.433 64.5905C147.394 66.3605 144.451 68.2906 141.616 70.3728L141.619 70.4039L148.198 70.0001C149.783 69.9028 151.422 69.7922 152.822 69.125C153.325 68.8098 153.887 68.6005 154.474 68.5101C154.837 68.5298 155.194 68.6214 155.522 68.7796C155.85 68.9377 156.144 69.1594 156.386 69.4317C159.418 72.3057 160.296 76.7006 163.698 79.2256C161.533 74.482 158.971 69.9302 156.038 65.6189Z" fill="white"/>
<path d="M147.776 87.4165C147.624 87.4228 147.478 87.4292 147.332 87.4355C146.272 87.0546 145.186 86.718 144.087 86.4258C143.376 86.2354 142.652 86.0639 141.928 85.9179C141.109 85.7402 140.284 85.6004 139.458 85.4797C137.886 85.2512 136.302 85.1176 134.715 85.0797C134.703 85.081 134.69 85.0798 134.679 85.0761C134.667 85.0724 134.657 85.0663 134.648 85.0582C134.639 85.0501 134.632 85.0402 134.627 85.0291C134.622 85.0181 134.619 85.0061 134.619 84.994C134.619 84.9819 134.622 84.9699 134.627 84.9589C134.632 84.9478 134.639 84.9379 134.648 84.9298C134.657 84.9218 134.667 84.9156 134.679 84.9119C134.69 84.9082 134.703 84.907 134.715 84.9083C134.918 84.9083 135.121 84.9146 135.318 84.9274C136.909 84.9861 138.495 85.1409 140.068 85.3909C140.887 85.5242 141.706 85.683 142.519 85.8608C143.255 86.0259 143.992 86.2101 144.716 86.4132C145.751 86.7053 146.771 87.0397 147.776 87.4165Z" fill="white"/>
<path d="M166.09 88.2038C165.982 88.1848 165.874 88.1721 165.76 88.1594C165.321 87.7975 164.877 87.4546 164.413 87.118C163.835 86.6989 163.239 86.3052 162.629 85.937C161.279 85.1174 159.87 84.4 158.413 83.7907C156.109 82.8314 153.725 82.0792 151.288 81.5428C148.508 80.9338 145.694 80.4927 142.862 80.222C140.029 79.9298 137.185 79.7521 134.34 79.5743C134.219 79.5679 134.213 79.3902 134.34 79.3965C134.696 79.4219 135.051 79.4409 135.413 79.4663C138.29 79.6441 141.166 79.8474 144.024 80.1712C146.857 80.4749 149.667 80.9627 152.437 81.6317C154.802 82.2144 157.11 83.007 159.333 84.0002C160.612 84.5748 161.851 85.2346 163.042 85.975C163.797 86.4513 164.528 86.9593 165.226 87.499C165.518 87.7276 165.81 87.9563 166.09 88.2038Z" fill="white"/>
<path d="M164.896 88.0578C164.78 88.0392 164.664 88.0265 164.547 88.0197C164.414 87.9118 164.274 87.8102 164.134 87.7085C163.157 87.0088 162.136 86.3705 161.08 85.7972C160.12 85.2757 159.135 84.803 158.127 84.3812C155.825 83.4191 153.44 82.6668 151.002 82.1333C148.223 81.5243 145.409 81.0833 142.576 80.8126C139.744 80.5204 136.899 80.3427 134.054 80.1649C133.934 80.1522 133.934 79.9807 134.054 79.9871C134.416 80.0125 134.772 80.0315 135.127 80.0569C138.004 80.2346 140.881 80.4379 143.738 80.7617C146.571 81.0654 149.382 81.5533 152.152 82.2223C154.517 82.8039 156.824 83.5966 159.048 84.5908C159.886 84.9718 160.705 85.3845 161.505 85.8354C162.692 86.4868 163.825 87.2299 164.896 88.0578Z" fill="white"/>
<path d="M174.51 89.5882C174.408 89.5691 174.307 89.5437 174.205 89.5247C174.091 89.404 173.983 89.277 173.875 89.15C173.329 88.5213 172.789 87.8863 172.256 87.245C170.154 84.7431 168.16 82.165 166.28 79.5362C164.668 77.2883 163.137 74.9959 161.689 72.6591C160.997 71.5543 160.33 70.4367 159.677 69.3063C159.168 68.4301 158.673 67.5517 158.191 66.6712C158.051 66.4172 157.918 66.1631 157.784 65.9091C157.473 65.3122 157.162 64.709 156.832 64.1185C156.473 63.395 155.946 62.7679 155.295 62.2897C154.97 62.0719 154.593 61.9427 154.203 61.915C153.652 61.9171 153.111 62.0568 152.628 62.3214C149.075 63.9758 145.724 66.0318 142.64 68.4491C139.627 70.7923 136.903 73.4844 134.524 76.4691C134.448 76.558 134.283 76.4755 134.353 76.3802C134.639 76.0246 134.931 75.669 135.223 75.3197C137.509 72.6157 140.083 70.1692 142.9 68.0237C142.906 68.0173 142.919 68.011 142.925 68.0047C143.173 67.8078 143.421 67.6173 143.674 67.4332C145.247 66.2751 146.884 65.2066 148.577 64.2328C149.44 63.7311 150.323 63.2548 151.225 62.804C151.447 62.6898 151.675 62.5754 151.904 62.4675C152.133 62.3532 152.361 62.2453 152.59 62.1372C153.042 61.9065 153.537 61.7704 154.044 61.7373C155.809 61.7118 156.717 63.4899 157.346 64.6899C157.543 65.0647 157.746 65.4393 157.943 65.8139C158.705 67.2299 159.499 68.6397 160.324 70.0303C160.826 70.8939 161.346 71.7512 161.874 72.602C162.629 73.8149 163.404 75.015 164.21 76.2089C164.21 76.2097 164.21 76.2105 164.211 76.2113C164.211 76.212 164.211 76.2127 164.212 76.2133C164.213 76.2139 164.213 76.2144 164.214 76.2147C164.215 76.215 164.216 76.2152 164.216 76.2152C165.15 77.6249 166.122 79.0091 167.125 80.3871C168.846 82.7429 170.649 85.0459 172.535 87.2959C173.183 88.0705 173.841 88.8346 174.51 89.5882Z" fill="white"/>
<path d="M151.855 61.5437L151.679 61.6205C151.277 60.9411 150.713 60.3716 150.038 59.9627C149.362 59.5538 148.596 59.318 147.808 59.2765C145.208 59.0918 142.924 60.8243 142.717 63.1383C142.632 64.0911 142.908 65.0408 143.49 65.8003L143.327 65.8967C142.721 65.1058 142.434 64.1167 142.522 63.1244C142.738 60.7148 145.116 58.9105 147.823 59.1028C148.644 59.1461 149.442 59.3916 150.145 59.8174C150.849 60.2432 151.436 60.8362 151.855 61.5437Z" fill="#FF6582"/>
<path d="M139.009 66.2253C138.327 65.9286 137.584 65.7984 136.841 65.8457C136.099 65.893 135.378 66.1163 134.739 66.4971C137.072 66.8551 139.385 67.3356 141.668 67.9367C140.723 67.4436 139.984 66.6711 139.009 66.2253Z" fill="white"/>
<path d="M134.726 66.495L134.469 66.6809C134.556 66.6158 134.646 66.5549 134.739 66.4971L134.726 66.495Z" fill="white"/>
<path d="M142.464 67.5731C142.361 67.4715 142.259 67.3699 142.156 67.2683C141.366 66.4081 140.414 65.7116 139.355 65.2184C138.816 64.9913 138.237 64.872 137.652 64.8671C137.048 64.8812 136.45 64.9972 135.884 65.2103C135.618 65.3049 135.358 65.4124 135.101 65.5268C134.809 65.658 134.521 65.7979 134.234 65.9391C133.697 66.2039 133.166 66.4803 132.643 66.7683C131.601 67.3414 130.592 67.9583 129.615 68.619C129.109 68.9616 128.613 69.3154 128.127 69.6805C127.676 70.0196 127.234 70.3678 126.801 70.7251C126.708 70.8012 126.57 70.6781 126.662 70.602C126.776 70.5074 126.892 70.4133 127.007 70.3204C127.334 70.0579 127.665 69.8005 128.002 69.5481C128.615 69.087 129.245 68.6437 129.891 68.2183C130.895 67.5563 131.933 66.9392 133.007 66.367C133.543 66.0813 134.087 65.8076 134.638 65.5459C134.804 65.467 134.972 65.3897 135.143 65.3166C135.531 65.1422 135.933 64.9968 136.343 64.8816C136.931 64.713 137.547 64.6591 138.156 64.7231C138.739 64.7975 139.305 64.9717 139.829 65.2382C140.867 65.82 141.803 66.5669 142.602 67.4494C142.685 67.533 142.548 67.6567 142.464 67.5731Z" fill="white"/>
<path d="M47.5801 43.8491C61.8934 39.2824 77.8619 40.4914 91.4218 46.9249C95.2908 48.751 98.9448 51.0016 102.316 53.6351C103.27 54.3837 104.628 53.0447 103.663 52.2881C91.209 42.6279 75.5601 38.039 59.861 39.4431C55.5178 39.8317 51.23 40.6932 47.0736 42.0121C45.9101 42.3833 46.4074 44.2232 47.5801 43.8491Z" fill="#3F3D56"/>
<path d="M47.5801 56.549C61.8934 51.9824 77.8619 53.1914 91.4218 59.6248C95.2908 61.4509 98.9448 63.7015 102.316 66.335C103.27 67.0836 104.628 65.7446 103.663 64.988C91.209 55.3279 75.5601 50.7389 59.861 52.143C55.5178 52.5317 51.23 53.3931 47.0736 54.7121C45.9101 55.0833 46.4074 56.9231 47.5801 56.549Z" fill="#3F3D56"/>
<path d="M47.5801 69.2489C61.8934 64.6823 77.8619 65.8913 91.4218 72.3247C95.2908 74.1508 98.9448 76.4014 102.316 79.0349C103.27 79.7835 104.628 78.4445 103.663 77.6879C91.209 68.0278 75.5601 63.4388 59.861 64.8429C55.5178 65.2316 51.23 66.093 47.0736 67.412C45.9101 67.7832 46.4074 69.6231 47.5801 69.2489Z" fill="#3F3D56"/>
<path d="M47.5801 81.9488C61.8934 77.3822 77.8619 78.5912 91.4218 85.0247C95.2908 86.8508 98.9448 89.1013 102.316 91.7348C103.27 92.4834 104.628 91.1444 103.663 90.3878C91.209 80.7277 75.5601 76.1387 59.861 77.5428C55.5178 77.9315 51.23 78.7929 47.0736 80.1119C45.9101 80.4831 46.4074 82.323 47.5801 81.9488Z" fill="#3F3D56"/>
<path d="M47.5801 94.6488C61.8934 90.0821 77.8619 91.2911 91.4218 97.7246C95.2908 99.5507 98.9448 101.801 102.316 104.435C103.27 105.183 104.628 103.844 103.663 103.088C91.209 93.4276 75.5601 88.8386 59.861 90.2428C55.5178 90.6314 51.23 91.4929 47.0736 92.8118C45.9101 93.183 46.4074 95.0229 47.5801 94.6488Z" fill="#3F3D56"/>
<path d="M99.1493 15.8573V46.3112C99.1493 46.9164 98.0912 47.423 96.6656 47.562C96.6535 47.5613 96.6413 47.5628 96.6297 47.5665C96.3921 47.5844 96.1411 47.5979 95.8855 47.5979C95.0996 47.6123 94.3174 47.4847 93.5767 47.2213C93.5095 47.1944 93.4422 47.163 93.375 47.1361C93.3122 47.1002 93.245 47.0688 93.1822 47.033C92.8281 46.8223 92.6218 46.5757 92.6218 46.3112V13.2302C94.8658 13.926 97.0489 14.8047 99.1493 15.8573Z" fill="#386BF6"/>
<path d="M112.831 22.9206H111.898V131.518H112.831V22.9206Z" fill="#E6E6E6"/>
<path d="M214.249 97.2628C214.91 97.2023 215.55 96.9976 216.124 96.663C216.698 96.3284 217.191 95.8721 217.569 95.3262C217.947 94.7803 218.201 94.1582 218.313 93.5036C218.425 92.849 218.392 92.1778 218.216 91.5374L237.573 82.5015L249.227 63.6503L240.067 59.952L232.205 75.1428L212.307 88.4026C211.25 88.7691 210.365 89.5103 209.819 90.4858C209.273 91.4613 209.103 92.6033 209.343 93.6954C209.582 94.7875 210.214 95.7539 211.118 96.4114C212.022 97.0689 213.136 97.3718 214.249 97.2628Z" fill="#FFB6B6"/>
<path d="M256.415 45.5914C256.415 45.5914 258.697 46.3361 256.193 50.7611C254.188 54.3036 244.424 74.7089 240.438 78.7154C240.857 79.3874 241.041 80.1797 240.961 80.9677C240.88 81.7557 240.54 82.4945 239.993 83.0676L230.793 75.7665C230.617 73.1111 232.374 72.8476 233.415 72.9372L235.532 65.4354L242.915 46.9295L254.776 45.0239L256.415 45.5914Z" fill="#386BF6"/>
<path d="M256.614 10.9059C257.049 9.14704 260.205 7.84838 254.799 5.39283C253.487 4.79689 253.541 2.74461 252.432 1.82552C251.322 0.906433 249.697 0.480333 248.407 1.12274C247.255 1.6964 246.606 2.99463 246.468 4.27398C246.401 5.56161 246.55 6.8513 246.907 8.09006L246.803 8.24318C248.944 9.88181 251.085 11.5204 253.227 13.159C254.014 13.7611 255.042 14.3916 255.924 13.9398C256.923 13.4284 256.345 11.9948 256.614 10.9059Z" fill="#2F2E41"/>
</g>
<defs>
<clipPath id="clip0_17_357">
<rect width="300" height="229.37" fill="white" transform="translate(0 0.815125)"/>
</clipPath>
</defs>
</svg>
