<svg width="25" height="25" viewBox="0 0 25 25" fill="none" xmlns="http://www.w3.org/2000/svg">
<rect width="24" height="24" transform="translate(0.5 0.599487)" fill="white"/>
<path fill-rule="evenodd" clip-rule="evenodd" d="M23.54 12.8609C23.54 12.0454 23.4668 11.2613 23.3309 10.5086H12.5V14.957H18.6891C18.4225 16.3945 17.6123 17.6125 16.3943 18.4279V21.3134H20.1109C22.2855 19.3113 23.54 16.3632 23.54 12.8609Z" fill="#4285F4"/>
<path fill-rule="evenodd" clip-rule="evenodd" d="M12.4999 24.0993C15.6049 24.0993 18.2081 23.0695 20.1108 21.3132L16.3942 18.4277C15.3645 19.1177 14.0472 19.5254 12.4999 19.5254C9.50469 19.5254 6.96946 17.5025 6.06514 14.7843H2.2231V17.7638C4.11537 21.5223 8.00446 24.0993 12.4999 24.0993Z" fill="#34A853"/>
<path fill-rule="evenodd" clip-rule="evenodd" d="M6.06523 14.7845C5.83523 14.0945 5.70455 13.3575 5.70455 12.5995C5.70455 11.8416 5.83523 11.1045 6.06523 10.4145V7.435H2.22318C1.44432 8.9875 1 10.7439 1 12.5995C1 14.4552 1.44432 16.2116 2.22318 17.7641L6.06523 14.7845Z" fill="#FBBC05"/>
<path fill-rule="evenodd" clip-rule="evenodd" d="M12.4999 5.67335C14.1883 5.67335 15.7042 6.25358 16.8961 7.39312L20.1945 4.09471C18.2029 2.23903 15.5997 1.09949 12.4999 1.09949C8.00446 1.09949 4.11537 3.67653 2.2231 7.43494L6.06514 10.4145C6.96946 7.6963 9.50469 5.67335 12.4999 5.67335Z" fill="#EA4335"/>
</svg>
