<svg width="49" height="52" viewBox="0 0 49 52" fill="none" xmlns="http://www.w3.org/2000/svg">
<path d="M8.28398 3.34497H8.95705L11.1258 3.3699H41.2146L41.6633 3.41976L42.137 3.5444L42.7602 3.79368L43.184 4.01804L43.4332 4.19254L43.7075 4.4169L43.857 4.5914V4.64126H43.9069L44.0814 4.84068L44.3057 5.1149L44.6547 5.6384L44.8791 6.03725L45.0785 6.46104L45.3278 7.15904L45.4275 7.63268L45.5023 8.40547L45.5272 8.65475L45.5522 41.5355L45.5272 43.3553L45.4524 43.9287L45.3777 44.3026L45.3029 44.6017L45.1035 45.1502L45.0037 45.3745L44.904 45.5739L44.7046 45.9229L44.4802 46.2719L44.2559 46.5711L43.9817 46.8952L43.7822 47.0946L43.4831 47.3189H43.4332V47.3688L43.1092 47.5682L42.6355 47.8175L42.2616 47.9671L42.0871 48.0169L42.137 48.0668L41.9126 48.1416L41.8877 48.1914L41.5387 48.2662H41.4639L41.439 48.341H41.3143L41.439 48.2164V48.1665L41.1647 48.2164L40.5415 48.2662L40.5166 48.3161L40.2922 48.341L39.5942 48.3161L38.0736 48.341L36.9518 48.3659H11.2255L9.00691 48.3161L8.48341 48.2912L7.81034 48.1914L7.18712 48.0419L6.96276 48.0169V47.9671H6.83812L6.46419 47.7926L6.01548 47.5433L5.76619 47.3688L5.44212 47.1195L5.19284 46.8952L4.89369 46.5462L4.56962 46.0974L4.24555 45.5241L4.07105 45.0754L3.99627 44.8759L3.92148 44.6017L3.89655 44.502L3.82177 44.2777L3.79684 44.153L3.77191 43.5797L3.74698 43.3553V42.6074L3.77191 42.2086V10.7488L3.74698 10.5992L3.72205 8.70461H3.69712L3.6722 8.03154V7.63268L3.72205 7.5579H3.77191L3.79684 7.35847L3.92148 6.88483H3.97134L4.0212 6.66047L4.09598 6.48597L4.29541 6.01233L4.46991 5.71318L4.64441 5.43897L4.86877 5.13983L5.34241 4.66618L5.66648 4.4169L6.18998 4.09283L6.66362 3.8934L7.18712 3.7189L7.63584 3.61918L8.10948 3.56933L9.20633 3.5444L11.6493 3.51947H37.4005L40.2673 3.5444L41.0152 3.56933L41.5387 3.61918L41.9126 3.69397L42.5109 3.8934L43.1092 4.16761L43.4831 4.39197L43.533 4.36704L43.0344 4.0679L42.461 3.79368L42.0372 3.64411L41.6633 3.5444L40.9155 3.46961H8.05962L7.51119 3.5444L6.98769 3.69397L6.46419 3.8934L6.11519 4.0679L6.06534 4.04297L6.16505 3.96818H6.21491V3.91833L6.31462 3.86847H6.38941V3.81861L6.83812 3.61918L7.31176 3.46961L7.63584 3.39483L8.28398 3.34497ZM41.6882 48.0917L41.6633 48.1416L41.7381 48.1665V48.0917H41.6882ZM41.4888 48.1416L41.5387 48.2164V48.1416H41.4888Z" fill="black"/>
<path d="M8.23412 4.84068H40.8905L40.9155 4.86561L40.9404 9.75161V18.1525L40.9155 25.2073L40.7908 25.1824L40.4418 25.0328L39.669 24.7586L38.8962 24.5342L38.2232 24.3847L37.4255 24.2351L36.6776 24.1354L36.0793 24.0855L35.5807 24.0606H34.3842L33.3621 24.1354L32.2652 24.285L31.2432 24.4595L30.2959 24.6838L29.1242 25.0079L28.6007 25.1824L27.9028 25.4566L27.1798 25.7557L26.4818 26.0798L25.8337 26.4288L25.5595 26.6282L25.2853 26.8027L24.8365 27.1517L24.5623 27.3512L24.4626 27.3761L24.2632 27.2016L23.9142 26.9523L23.615 26.728L23.0915 26.4039L22.4933 26.0798L21.5709 25.6311L20.5488 25.2322L19.6514 24.9331L18.754 24.6838L17.9313 24.4844L17.0339 24.3099L15.9869 24.1603L15.0895 24.0855L14.6906 24.0606H13.2448L12.3473 24.1354L11.1258 24.3099L10.378 24.4595L9.25619 24.7586L8.43355 25.0328L8.15933 25.1575H8.08455L8.10948 4.89054L8.23412 4.84068Z" fill="white"/>
<path d="M24.1635 10.3748H25.036L25.6592 10.4496L26.3073 10.5743L26.8807 10.7488L27.479 10.998L28.0025 11.2723L28.3764 11.5215L28.7254 11.7708L29.1242 12.0949L29.3735 12.3193V12.3691L29.4483 12.394L29.6228 12.5935L29.897 12.8926L30.2959 13.466L30.595 13.9895L30.8692 14.5628L31.1185 15.2608L31.2681 15.8342L31.3678 16.4075L31.3927 16.6568V17.7537L31.293 18.5265L31.1435 19.1497L30.9191 19.8227L30.595 20.4958L30.271 21.0442L29.9967 21.4182L29.7973 21.6675L29.5231 21.9666L29.224 22.2907L28.9747 22.515L28.6755 22.7394L28.3016 23.0136L27.9277 23.238L27.5288 23.4623L26.9305 23.7116L26.2824 23.911L25.8337 24.0107L25.1606 24.1105L24.7617 24.1354H24.2133L23.5901 24.0855L22.9669 23.9858L22.4683 23.8612L21.8451 23.6368L21.2967 23.3875L20.848 23.1382L20.474 22.889L20.0503 22.5649L19.801 22.3405L19.3772 21.9417L19.1528 21.6924L18.9285 21.3932L18.6044 20.9196L18.3302 20.446L18.056 19.8227L17.8316 19.1995L17.682 18.6012L17.5823 17.978L17.5574 17.7038V16.8313L17.6322 16.1832L17.7568 15.56L17.9812 14.837L18.1806 14.3634L18.38 13.9645L18.6792 13.466L19.0033 13.0173L19.2027 12.768L19.4769 12.4688L19.801 12.1448L20.15 11.8705L20.474 11.6213L20.848 11.372L21.3715 11.0728L21.9448 10.8235L22.6927 10.5992L23.291 10.4745L23.8643 10.3998L24.1635 10.3748Z" fill="black"/>
<path d="M13.494 30.3675H14.6158L15.3388 30.4174L16.2362 30.5171L17.1087 30.6667L18.0809 30.891L18.8537 31.1154L19.5517 31.3647L20.2497 31.6638L20.8729 31.963L21.2718 32.1624L21.8451 32.4865L22.219 32.7357L22.6927 33.0847L23.0417 33.3589L23.3159 33.6082L23.5153 33.7827L23.8394 34.0819L24.2881 34.5306L24.4626 34.6552L24.5623 34.6054L25.1606 34.0071L25.36 33.8326L25.5345 33.6581L25.734 33.4836L26.0331 33.2343L26.5317 32.8604L27.0552 32.5114L27.4291 32.287L28.2268 31.8632L28.7005 31.6389L29.6477 31.265L30.3208 31.0406L31.7168 30.6916L32.5145 30.542L33.2624 30.4423L34.2595 30.3675H35.5309L36.3785 30.4423L37.1263 30.542L37.9739 30.7165L38.6968 30.916L39.1206 31.0655L39.8186 31.3397L40.6412 31.7386L40.8905 31.8882L40.9404 31.963V34.2065L40.7908 34.1567L40.3172 33.9074L39.6441 33.6332L39.0458 33.4088L38.3977 33.2094L37.575 33.0099L36.8521 32.8853L36.179 32.8105L35.4561 32.7607H34.2595L33.2125 32.8604L32.3899 32.985L31.5672 33.1595L30.6698 33.3839L29.5231 33.7578L28.7254 34.0819L28.0025 34.4309L27.3543 34.7799L26.7311 35.1538L26.3073 35.4529L25.9583 35.7272L25.6841 35.9764L25.4099 36.2008L24.9612 36.6495L24.8116 36.8489H24.7618L24.7119 36.9487L24.5125 37.173L24.3878 37.0733L24.2383 36.8739L24.0638 36.6994L23.8893 36.4999L23.6898 36.3005L23.4904 36.126L23.1913 35.8518L22.7924 35.5527L22.0445 35.0541L21.4213 34.6802L20.9228 34.4059L20.2248 34.0819L19.6265 33.8326L18.9285 33.5833L18.2305 33.3589L17.4328 33.1595L16.5852 32.985L15.9869 32.8853L14.9898 32.7856L14.6408 32.7607H13.2448L12.2975 32.8604L11.5496 32.985L10.6522 33.1844L10.029 33.3589L9.40576 33.5833L8.55819 33.9323L8.18426 34.1317H8.08455L8.10948 31.8632L8.50833 31.6389L8.93212 31.4145L9.58026 31.1403L10.4029 30.8661L11.3253 30.6417L11.8238 30.542L12.7462 30.4174L13.494 30.3675Z" fill="white"/>
<path d="M13.1949 26.03H14.7903L15.4883 26.0798L16.4855 26.2045L17.358 26.354L18.031 26.5036L19.0282 26.7778L20.0752 27.1268L20.7981 27.426L21.4463 27.7251L22.1443 28.099L22.4933 28.3234L22.9918 28.6724L23.3408 28.9466L23.615 29.1959L23.8893 29.4202L24.1635 29.6945L24.4377 29.9188L24.5623 29.8939L24.8864 29.5947L25.0858 29.3953L25.36 29.171L25.6343 28.9217L26.1079 28.5727L26.6065 28.2237L27.2546 27.8497L27.6535 27.6503L28.3265 27.3262L28.9996 27.077L29.8472 26.8027L30.5452 26.6033L31.2432 26.4288L32.016 26.2792L32.8137 26.1546L33.8357 26.0549L34.5587 26.03H35.3564L36.3037 26.0798L37.2011 26.1795L37.7994 26.2792L38.4725 26.4288L39.0957 26.6033L39.669 26.8027L40.4418 27.1268L40.7659 27.3013L40.9155 27.401L40.9404 27.4509V29.7194L40.7908 29.6695L40.4418 29.495L39.5195 29.146L38.8713 28.9466L38.1982 28.7721L37.4753 28.6225L36.8022 28.5228L35.7802 28.4231L35.4062 28.3982H34.434L33.4369 28.473L32.4397 28.5976L31.4177 28.7721L30.6449 28.9466L29.6477 29.2208L28.85 29.495L28.1022 29.7942L27.3792 30.1182L26.6813 30.4672L26.1079 30.8162L25.6841 31.1154L25.2853 31.4145L24.9612 31.6887L24.5623 32.0377L24.4377 32.0128L24.0388 31.6887L23.7148 31.4145L23.2411 31.0904L22.917 30.8661L22.4185 30.5669L21.7205 30.193L21.3216 29.9936L20.6984 29.7194L19.9256 29.4202L19.3024 29.2208L18.5545 28.9965L17.707 28.797L16.7597 28.6225L15.8373 28.4979L14.9648 28.4231L14.4663 28.3982H13.4193L12.5218 28.473L11.7989 28.5727L11.076 28.6973L10.2783 28.8718L9.48055 29.1211L8.63298 29.4452L8.13441 29.6695H8.08455L8.10948 27.3761L8.15933 27.2764L8.83241 26.9523L9.63012 26.6532L10.3032 26.4537L11.2255 26.2543L11.9983 26.1297L12.7213 26.0549L13.1949 26.03Z" fill="white"/>
<path d="M10.353 43.9785H40.8656L40.8905 44.0034V44.5269L40.8157 45.2249L40.6662 45.7235L40.4667 46.1722L40.2673 46.4714L40.1177 46.6708L40.043 46.7207H11.076L10.8018 46.3966L10.5774 46.1224L10.4029 45.9229L10.4278 45.8731H27.7532L27.9277 45.8232L28.0523 45.7235L28.177 45.4992V45.2499L28.0773 45.0255L27.8529 44.8759L27.7532 44.851H10.2284L10.1287 44.8261L10.2284 44.3275L10.3032 44.0284L10.353 43.9785Z" fill="white"/>
<path d="M34.1598 34.73H35.6805L36.5031 34.8048L37.1512 34.9045L37.8243 35.0541L38.4226 35.2286L39.0707 35.453L39.7438 35.777L40.1427 35.9765L40.6412 36.2507L40.9155 36.4252V41.9344L40.8905 41.9593H38.0985L38.1235 41.8596L38.298 41.4358L38.5223 40.7129L38.7467 39.8653L39.0458 38.4693L39.1954 37.522L39.2203 37.2727V36.9736L39.1455 36.7492L39.0707 36.6495L38.996 36.6246H38.7965L38.5472 36.7243L38.273 36.9487L38.0487 37.1481L37.7745 37.4971L37.5501 37.8212L37.2759 38.3447L37.0515 38.918L36.877 39.4665L36.8272 39.5662H36.7524L36.528 38.6438L36.4034 38.2699L36.204 37.8212L35.9547 37.3725L35.6805 37.0235L35.4312 36.7492L35.2317 36.6246L35.0074 36.5997L34.8827 36.6246L34.8329 36.7492L34.7581 36.9487L34.6833 37.5719V38.245L34.7332 38.7435L34.8578 39.3667L35.0323 39.8653L35.2317 40.2642L35.481 40.663L35.7552 41.012L35.9796 41.2613L36.1541 41.4607L36.3785 41.6851L36.6277 41.8845V41.9593H35.5558L35.3065 41.5106L35.0822 41.2115L34.8827 40.9871L34.6085 40.7877L34.3842 40.7129H34.1598L34.0352 40.7627L33.9105 40.9622V41.2862L34.0352 41.6103L34.1598 41.8596V41.9344L33.9355 41.9593H31.7916V41.8845L32.5644 41.1117L32.7887 40.8375L33.0879 40.4636L33.1377 40.339V40.1645L33.063 40.0398L32.8885 39.9401L32.7887 39.9152H32.34L31.8415 40.0149L31.3429 40.1645L30.62 40.5135L30.271 40.7129L29.922 40.9622L29.6727 41.1616L29.4234 41.386L28.8999 41.9094L28.7503 41.9593H27.5538L27.6036 41.8347L28.501 40.9372L28.9996 40.5633L29.4483 40.2642L29.7724 40.0647L30.246 39.7905L30.9191 39.4166L31.4925 39.1175L31.8664 38.8931L32.3151 38.594L32.6641 38.3197L33.0131 38.0206L33.2624 37.6965L33.2873 37.522L33.1627 37.3725L32.9882 37.2977H32.3151L31.6171 37.3974L31.0687 37.522L30.3956 37.7215L29.573 38.0455L29.0495 38.2948L28.6008 38.5441L28.0773 38.8931L27.7283 39.1424L27.4291 39.3667L27.0552 39.6908L26.8558 39.8653L26.6065 40.1146L26.3821 40.3888L26.1328 40.663L25.8586 41.012L25.6592 41.2862L25.2603 41.8845L25.1855 41.9593H25.0609L25.011 41.9094L24.9612 41.5604V40.9372L25.036 40.3639L25.1855 39.8404L25.4099 39.3169L25.6841 38.8432L25.9334 38.4942L26.2575 38.1203L26.9056 37.4722L27.1798 37.2478L27.3793 37.0733L27.7283 36.824L28.0274 36.6246L28.526 36.3255L28.9747 36.0762L29.6727 35.7521L30.2959 35.5028L31.1684 35.2286L32.0658 35.0042L32.714 34.8796L33.5117 34.7799L34.1598 34.73Z" fill="white"/>
<path d="M13.2697 34.73H14.7654L15.613 34.8048L16.286 34.9045L17.1336 35.079L17.7818 35.2535L18.4299 35.453L18.9534 35.6524L19.6514 35.9515L20.3245 36.3005L20.8729 36.6246L21.172 36.824L21.5958 37.1232L21.87 37.3475L22.219 37.6467L22.6428 38.0705L23.0915 38.6189L23.3408 39.0177L23.5901 39.5412L23.8145 40.2143L23.9142 40.7129L23.9391 40.8874V41.8097L23.8893 41.9344L23.7148 41.9593L23.5901 41.8347L23.3907 41.5106L23.1414 41.0868L22.8921 40.7627L22.6179 40.4387L22.4434 40.2392L22.1443 39.9152L21.7703 39.5662L21.3715 39.2421L20.8978 38.8931L20.4491 38.6189L20.125 38.4195L19.5517 38.1203L18.9534 37.8461L18.2803 37.6217L17.7568 37.4722L16.9342 37.3226H15.9869L15.7875 37.4223L15.7127 37.547V37.7464L15.8623 37.9458L15.962 38.0705L16.2362 38.2948L16.6849 38.6438L17.2084 38.9679L17.7319 39.267L18.4548 39.6659L18.9783 39.9401L19.452 40.2392L19.801 40.4885L20.15 40.7877L20.4242 41.012L20.7981 41.361L21.1222 41.6851L21.2967 41.9094V41.9593H20.0752L19.3523 41.2364L18.8786 40.8874L18.4548 40.6132L17.9313 40.339L17.358 40.1146L16.8843 39.965L16.3359 39.8902L16.0118 39.9401L15.8872 40.0897L15.8623 40.1645V40.3639L16.0617 40.7129L16.4107 41.1367L16.5852 41.3361L16.8843 41.6352L17.0838 41.8097L17.1835 41.9094V41.9593H15.0396L14.7654 41.9344L14.7903 41.8097L14.9648 41.4607L15.0396 41.1367L15.0147 40.9372L14.9399 40.8126L14.7903 40.7129L14.4663 40.7378L14.192 40.9123L14.0175 41.0619L13.7433 41.4109L13.4691 41.8845L13.3694 41.9593H12.2975L12.3473 41.8596L12.7711 41.4607L13.0703 41.1616L13.2946 40.8874L13.494 40.6381L13.7184 40.2891L13.9178 39.8902L14.0923 39.3169L14.217 38.7186L14.2918 37.9957V37.5968L14.2668 37.198L14.1671 36.7991L14.0425 36.5997H13.7932L13.6187 36.6994L13.2946 37.0484L13.0204 37.4223L12.7213 37.9707L12.472 38.594L12.3473 38.9679L12.2227 39.4914L12.1479 39.5662L12.098 39.4914L11.9734 38.9928L11.749 38.3945L11.5247 37.9707L11.1757 37.4722L10.9015 37.1481L10.6522 36.8988L10.353 36.6994L10.2284 36.6495L10.029 36.6246L9.8794 36.6994L9.77969 36.849L9.75476 36.9237V37.4971L9.90433 38.4195L10.1038 39.3667L10.353 40.339L10.727 41.5854L10.8018 41.8097V41.9344L10.727 41.9593H8.10948L8.08455 41.8347L8.10948 36.3255L8.18426 36.2507L8.58312 36.0512L8.95705 35.8518L9.55533 35.5776L10.2035 35.3283L10.8516 35.1289L11.6493 34.9295L12.2227 34.8297L12.8708 34.755L13.2697 34.73Z" fill="white"/>
<path d="M42.8848 5.48883L43.0593 5.6384L43.2837 5.86276L43.5329 6.23669L43.7324 6.63554L43.8321 6.90976L43.9069 7.2089L43.9318 7.3834L43.9567 7.95676V43.5797L43.9069 44.1032L43.8072 44.4771L43.6576 44.851L43.4083 45.2997L43.1839 45.5989L42.9596 45.8482L42.7851 46.0227L42.5607 46.1722L42.4859 46.1972L42.5109 46.0725L42.6854 45.549L42.81 45.0006L42.8349 44.8261L42.8599 44.3774V5.53869L42.8848 5.48883Z" fill="white"/>
<path d="M24.2133 12.2943H24.8365L25.3102 12.3442L25.8835 12.4688L26.407 12.6433L26.9305 12.9175L27.3045 13.1668L27.6036 13.3912L27.9526 13.6903L28.3016 14.0393L28.5758 14.3883L28.8002 14.7124L29.0993 15.2608L29.2738 15.6846L29.4234 16.233L29.4982 16.6568L29.5231 17.1803L29.4982 17.2053L19.5517 17.2302L19.5018 17.2053V16.9061L19.5766 16.3577L19.6763 15.884L19.8259 15.4353L20.0503 14.9368L20.3743 14.4133L20.6236 14.0892L20.9726 13.7153L21.172 13.5158L21.4961 13.2665L21.9448 12.9674L22.4185 12.7181L22.9669 12.5187L23.5901 12.3691L23.9142 12.3193L24.2133 12.2943Z" fill="white"/>
<path d="M10.353 43.9785H40.8656L40.8905 44.0034V44.5269H40.8656L40.8407 44.3275H40.7908L40.7659 44.4522L40.716 44.4771V44.3524L40.6412 44.6516L40.4917 44.9507L40.367 45.0754L40.2424 45.1751L39.9432 45.3247L39.7438 45.3496L39.4696 45.2997V45.3496H39.1455L39.0957 45.3745L38.971 45.3247H38.7467L38.5472 45.2748L38.298 45.2997L37.8243 45.2499H37.3756L37.1512 45.2249H36.6776L36.6028 45.2L36.3037 45.2249H35.9796L35.7802 45.2499L35.0074 45.2748L34.9575 45.2249H34.7082L34.5337 45.2L34.1598 45.2499L33.9604 45.2249L33.4618 45.2499H33.2873L33.1128 45.2748H32.1406L31.5672 45.3247L31.293 45.2997H30.969L30.6947 45.2748H30.2959L29.8223 45.2499L29.4982 45.2L29.4483 45.1502L29.199 45.1252L29.0495 45.1502L28.9498 45.1003L28.526 45.1252L28.3764 45.0255V44.9757L28.2268 44.9258L28.177 44.9757L28.1022 44.9009H27.9028L27.7532 44.851H10.2284L10.1287 44.8261L10.2284 44.3275L10.3032 44.0284L10.353 43.9785Z" fill="white"/>
<path d="M13.3195 7.23383L13.5439 7.25875L13.6436 7.3834L13.7433 7.65761L13.9178 8.28082L14.0674 8.65475L14.2419 8.97882L14.4663 9.27797L14.6906 9.52725L14.8651 9.70175L15.2141 9.95104L15.613 10.1754L15.9869 10.325L16.3858 10.4496L16.5353 10.5244L16.5852 10.6241V10.7986L16.4605 10.9233L15.588 11.2224L15.1643 11.4468L14.8153 11.721L14.4663 12.07L14.217 12.419L14.0175 12.7929L13.7932 13.4161L13.6436 13.8648L13.5439 14.0144L13.4691 14.0642H13.2697L13.17 13.9645L13.0703 13.6903L12.8459 12.9674L12.6465 12.5685L12.4221 12.2195L12.1978 11.9703L12.0233 11.7958L11.6743 11.5215L11.2754 11.2972L10.8765 11.1227L10.378 10.9731L10.2284 10.8734L10.2035 10.7238L10.2533 10.5493L10.353 10.4745L10.8516 10.2751L11.2505 10.1006L11.6992 9.85132L11.9485 9.6519L12.0233 9.62697V9.57711L12.2227 9.40261L12.5468 8.97882L12.7711 8.57997L12.9207 8.20604L13.1201 7.45818L13.2198 7.28368L13.3195 7.23383Z" fill="black"/>
<path d="M6.14012 25.1076H6.2149V35.3034L6.09026 35.428L5.76619 35.7022L5.49198 35.9266L5.11805 36.2257L4.89369 36.3753H4.84383L4.86876 36.0512L4.89369 27.6503L4.91862 27.1517L5.01833 26.7778L5.16791 26.4039L5.34241 26.0798L5.59169 25.7059L5.8659 25.3818L6.06533 25.2073L6.09026 25.1575H6.14012V25.1076Z" fill="#FAF8F2"/>
<path d="M19.9505 19.2245H29.0245L28.9747 19.374L28.7752 19.7729L28.6007 20.0471L28.3515 20.3712L28.177 20.5457L28.0773 20.6703L20.9477 20.6952L20.848 20.6454L20.6236 20.3712L20.4242 20.1219L20.1998 19.7729L19.9256 19.2992L19.9505 19.2245Z" fill="#FAF8F2"/>
<path d="M6.16505 9.27797H6.18998V17.9282L5.89084 18.1775L5.54184 18.4517L5.11805 18.7757L4.91862 18.9253H4.86877L4.8937 10.3748L5.2427 10.1006L5.46705 9.87625L5.66648 9.70175L5.99055 9.42754L6.16505 9.27797Z" fill="white"/>
<path d="M22.5182 44.1032H24.0887L25.36 44.1281L27.2297 44.153L28.0274 44.2278L28.2517 44.2777L28.3515 44.3275L28.2268 44.4023H28.1022V44.4522L27.9526 44.5269L27.7532 44.5768L27.5288 44.6267L27.479 44.6516L27.0552 44.7014L26.9555 44.7513L26.8059 44.7762H15.8872L15.7127 44.7513L14.541 44.7264H13.4442L12.1978 44.7014L11.1258 44.7264L10.6273 44.7014L10.4278 44.6765L10.378 44.6267L10.353 44.502L10.4029 44.3026L10.5026 44.1779L10.5774 44.153L11.5745 44.1281H21.5958L22.5182 44.1032Z" fill="white"/>
<path d="M33.0131 12.2195H37.1762L37.4504 12.3193L37.6498 12.4937L37.7745 12.768V13.0422L37.6747 13.2416L37.4504 13.4909L37.3507 13.5657L37.251 13.5906H33.1128L32.8635 13.5407L32.6641 13.4161L32.4896 13.1917L32.4397 13.0671V12.7181L32.5395 12.5187L32.714 12.3442L32.9134 12.2445L33.0131 12.2195Z" fill="black"/>
<path d="M31.5174 7.08426H31.991L32.3151 7.18397L32.5644 7.30862L32.8137 7.53297L32.9882 7.75733L33.1377 8.0814L33.1876 8.33069V8.65476L33.1128 8.92897L32.9882 9.17826L32.7887 9.45247L32.5145 9.67683L32.1655 9.85133L31.9412 9.90119H31.5174L31.1684 9.80147L30.8692 9.62697L30.6698 9.45247L30.4953 9.20319L30.3707 8.92897L30.3208 8.75447V8.2559L30.4205 7.93183L30.595 7.63269L30.8443 7.3834L31.1185 7.2089L31.3927 7.10919L31.5174 7.08426Z" fill="black"/>
<path d="M36.7025 7.63268H38.9212L39.2702 7.80718L39.4197 8.03154L39.4696 8.15618V8.40547L39.3449 8.65475L39.1206 8.87911L38.9959 8.92897L38.8464 8.9539L37.924 8.97882H36.6776L36.3286 8.9539L36.1042 8.87911L35.9297 8.72954L35.8051 8.48025L35.7802 8.23097L35.8799 7.95675L36.0544 7.78225L36.2289 7.68254L36.3286 7.65761L36.7025 7.63268Z" fill="black"/>
<path d="M14.5161 15.2608H14.7405L14.9898 15.3107L15.1892 15.4104L15.3886 15.6347L15.4634 15.8092V16.1084L15.3388 16.3327L15.1144 16.5322L14.89 16.607H13.0453L12.7711 16.5072L12.6215 16.4075L12.4969 16.2081L12.447 16.0336V15.7843L12.5717 15.535L12.7462 15.3855L12.8958 15.3107L13.0703 15.2857L14.5161 15.2608Z" fill="black"/>
<path d="M36.902 18.1027H37.1762L37.4753 18.1775L37.6997 18.327L37.8742 18.5015L37.9988 18.7259L38.0736 18.9502V19.1995L37.9739 19.5236L37.7994 19.7729L37.6249 19.9225L37.3257 20.072L37.226 20.097H36.8272L36.5779 19.9972L36.3535 19.8227L36.204 19.6233L36.1042 19.399L36.0793 19.2494V18.9253L36.1541 18.6511L36.3286 18.4018L36.528 18.2273L36.7524 18.1276L36.902 18.1027Z" fill="black"/>
<path d="M6.16505 20.2715L6.2149 20.2964V22.54L6.11519 22.6646L5.91576 22.8391L5.6914 23.0635L5.49198 23.238L5.11805 23.562L4.91862 23.7365L4.84383 23.7615L4.86876 23.0136L4.89369 21.3683L5.09312 21.1689L5.29255 20.9944L5.61662 20.7202L5.89083 20.4958L6.16505 20.2715Z" fill="white"/>
<path d="M11.8488 19.7978L12.1728 19.8477L12.3723 19.9474L12.5717 20.1219L12.7213 20.3462L12.796 20.5457V20.9445L12.7213 21.1938L12.5717 21.3932L12.3723 21.5927L12.123 21.7173L11.9734 21.7672H11.6493L11.3751 21.6924L11.1508 21.5179L10.9513 21.2437L10.8765 21.0442L10.8516 20.9445V20.6454L10.9264 20.3462L11.1258 20.097L11.3253 19.9225L11.4748 19.8477L11.8488 19.7978Z" fill="black"/>
<path d="M8.28398 3.34497H8.95705L11.1258 3.3699H41.2146L41.6633 3.41976L42.137 3.5444L42.7602 3.79368L43.184 4.01804L43.4332 4.19254L43.7075 4.4169L43.7324 4.49168H43.5828L43.508 4.44183L43.533 4.36704L43.0344 4.0679L42.461 3.79368L42.0372 3.64411L41.6633 3.5444L40.9155 3.46961H8.05962L7.51119 3.5444L6.98769 3.69397L6.4642 3.8934L6.1152 4.0679L6.06534 4.04297L6.16505 3.96818H6.21491V3.91833L6.31462 3.86847H6.38941V3.81861L6.83812 3.61918L7.31177 3.46961L7.63584 3.39483L8.28398 3.34497Z" fill="black"/>
<path d="M6.14012 37.8212L6.21491 37.8461V39.7157L6.09027 39.8404L5.76619 40.1146L5.41719 40.3888L5.01834 40.7129L4.91862 40.7877H4.86877V39.0427L4.91862 38.918L5.11805 38.7186L5.31748 38.5441L5.69141 38.22L5.96562 37.9957L6.14012 37.8212Z" fill="white"/>
<path d="M18.7041 7.18397H19.078L19.3273 7.28368L19.5766 7.50804L19.6763 7.65761L19.7262 7.80718L19.7511 8.00661L19.7013 8.2559L19.5766 8.45532L19.4021 8.65475L19.1778 8.77939L19.103 8.80432H18.6792L18.4548 8.70461L18.2803 8.55504L18.1308 8.30575L18.0809 8.15618V7.83211L18.1806 7.5579L18.38 7.33354L18.6293 7.2089L18.7041 7.18397Z" fill="black"/>
<path d="M6.16505 5.41404L6.21491 5.43897L6.18998 6.83497L5.94069 7.05932L5.66648 7.28368L5.39227 7.53297L5.11805 7.75732L4.86877 7.95675H4.81891L4.86877 7.65761L5.01834 7.08425L5.16791 6.71032L5.29255 6.46104L5.56677 6.06218L5.76619 5.8129L6.16505 5.41404Z" fill="white"/>
<path d="M31.7667 46.6459H37.1014L38.7217 46.6708L39.7687 46.6957V46.7207H11.3003V46.6957L11.9235 46.6708L31.7667 46.6459Z" fill="black"/>
<path d="M15.4883 20.7202H15.8124L16.0118 20.8199L16.1863 21.0193L16.2611 21.2437L16.2362 21.468L16.0866 21.7173L15.8623 21.8669L15.7127 21.9167H15.5133L15.3138 21.817L15.1393 21.6176L15.0895 21.5179L15.0645 21.3185L15.1144 21.0692L15.2141 20.9196L15.3886 20.77L15.4883 20.7202Z" fill="black"/>
<path d="M24.4626 7.05933H24.7867L25.036 7.18397L25.1855 7.3834L25.2354 7.53297V7.70747L25.1357 7.95675L24.9861 8.13125L24.7867 8.23097H24.5125L24.313 8.15618L24.1884 8.05647L24.0638 7.83211V7.45818L24.1635 7.25875L24.338 7.10918L24.4626 7.05933Z" fill="black"/>
<path d="M33.4618 20.795H33.736L33.9105 20.8697L34.11 21.0442L34.1847 21.1938L34.2097 21.3683L34.1349 21.5927L34.0352 21.7422L33.8607 21.8918L33.6862 21.9417H33.4369L33.2873 21.8669L33.1128 21.6675L33.038 21.4431V21.2437L33.1128 21.0442L33.2125 20.9196L33.4618 20.795Z" fill="black"/>
<path d="M34.5587 15.3107L34.808 15.3605L35.0074 15.4852L35.157 15.7095V16.0087L35.0572 16.1832L34.9326 16.3327L34.7332 16.4325H34.459L34.2845 16.3577L34.11 16.1582L34.0601 16.0585V15.7594L34.1598 15.56L34.2595 15.4353L34.434 15.3356L34.5587 15.3107Z" fill="black"/>
<path d="M38.4725 21.6176L38.6968 21.6425L38.8962 21.7672L39.0209 21.9167L39.0957 22.166L39.0209 22.4153L38.8215 22.6397L38.5971 22.7394L38.3478 22.7145L38.1733 22.6147L38.0237 22.4153L37.9739 22.2408L37.9988 22.0165L38.0985 21.817L38.273 21.6675L38.4725 21.6176Z" fill="black"/>
<path d="M38.1982 14.6376H38.5472L38.7467 14.7622L38.8962 14.9617L38.9212 15.0365V15.3107L38.7965 15.5101L38.5971 15.6846L38.4475 15.7345L38.1982 15.7095L38.0487 15.6347L37.8991 15.4602L37.8243 15.2359L37.8492 15.0115L37.949 14.8121L38.1235 14.6625L38.1982 14.6376Z" fill="black"/>
<path d="M9.92926 15.4104H10.2783L10.4777 15.5101L10.6023 15.6597L10.6522 15.8092L10.6273 16.0336L10.5026 16.258L10.3032 16.4325L10.2284 16.4574H9.97912L9.75476 16.3577L9.65505 16.233L9.58026 16.0087V15.8342L9.72983 15.535L9.92926 15.4104Z" fill="black"/>
<path d="M9.95419 6.76019H10.2035L10.4029 6.83497L10.5275 6.95961L10.6023 7.10918L10.6273 7.28368L10.5275 7.53297L10.3281 7.70747L10.2284 7.75733H9.95419L9.80462 7.68254L9.67998 7.5579L9.60519 7.43326L9.58026 7.2089L9.65505 7.00947L9.80462 6.83497L9.95419 6.76019Z" fill="black"/>
<path d="M8.10948 4.89054H8.13441L8.15933 17.0058L8.18426 18.9752L8.15933 22.8391L8.13441 25.1076L8.20919 25.1325L8.08455 25.1575L8.10948 4.89054Z" fill="black"/>
<path d="M31.7667 46.6459H37.1014L38.7217 46.6708L39.7687 46.6957V46.7207H37.0515L31.7168 46.6957L31.7667 46.6459Z" fill="black"/>
<path d="M45.4774 7.10918L45.5272 7.18397L45.5522 7.3834H45.602L45.6768 7.88197L45.7017 8.67968L45.6519 8.72954L45.602 8.67968L45.5771 8.35561L45.5272 8.33068V8.28083L45.5522 8.2559H45.5272L45.5023 7.80718L45.4774 7.33354V7.10918ZM45.602 7.83211V8.05647H45.627V7.83211H45.602Z" fill="black"/>
<path d="M40.8905 27.401L40.9404 27.4509V29.7194L40.8407 29.6695H40.8905V27.401Z" fill="black"/>
<path d="M8.13441 22.6147H8.15933L8.13441 25.1076L8.20919 25.1325L8.08455 25.1575L8.10948 22.6397L8.13441 22.6147Z" fill="black"/>
<path d="M45.3278 6.78511L45.4774 6.90975L45.5771 7.25875V7.3834L45.5272 7.28368L45.5023 7.2089V7.33354H45.4524L45.3278 6.8599V6.78511Z" fill="black"/>
<path d="M44.0564 4.66618L44.1562 4.71604L44.3307 4.89054L44.6049 5.23954L44.7046 5.36418L44.6797 5.4639L44.5799 5.33925L44.3307 4.99025L44.1063 4.74097L44.0564 4.66618Z" fill="black"/>
<path d="M45.2281 6.38625H45.2779L45.4026 6.6854L45.4524 6.88482L45.3527 6.83497L45.253 6.63554L45.2032 6.43611L45.2281 6.38625Z" fill="black"/>
<path d="M6.83812 3.61919L6.9129 3.66904L6.66362 3.76876L6.43926 3.86847H6.3894V3.81861L6.83812 3.61919Z" fill="black"/>
<path d="M6.14012 37.8212L6.2149 37.8461L6.18997 38.6937H6.16505V37.871L6.11519 37.8461L6.14012 37.8212Z" fill="black"/>
<path d="M44.7046 5.41404L44.8292 5.53868L44.8791 5.6384L44.7794 5.66333L44.6797 5.48883L44.7046 5.41404Z" fill="black"/>
<path d="M10.2035 44.6017L10.2533 44.6765V44.7762L10.353 44.8012H10.1536L10.1785 44.6765L10.2035 44.6017Z" fill="white"/>
<path d="M44.555 5.21461L44.6797 5.33926L44.7046 5.43897L44.6547 5.4639L44.555 5.31433V5.21461Z" fill="black"/>
</svg>
