<svg width="388" height="320" viewBox="0 0 388 320" fill="none" xmlns="http://www.w3.org/2000/svg">
<g clip-path="url(#clip0_6_153)">
<path d="M351.335 318.049H269.065V315.247C269.065 312.815 269.936 310.481 271.486 308.761C273.036 307.041 275.138 306.074 277.33 306.074H343.07C345.262 306.074 347.364 307.041 348.914 308.761C350.464 310.481 351.335 312.815 351.335 315.247V318.049Z" fill="#E6E6E6"/>
<path d="M308.275 306.633L310.777 305.515C284.599 233.399 287.121 142.418 309.249 64.3721C311.878 55.3294 312.068 45.6311 309.795 36.4704C307.522 27.3097 302.886 19.0862 296.457 12.8116C283.613 0.0903663 265.906 -3.00863 250.243 4.72313C234.782 12.3562 232.651 25.6519 232.651 38.8829H235.348C235.348 24.7595 238.068 14.0106 251.339 7.45851C266.019 0.212426 282.619 3.11883 294.661 15.0456C300.7 20.9388 305.054 28.6626 307.189 37.2667C309.323 45.8708 309.145 54.9798 306.676 63.4731C284.293 142.42 281.919 234.026 308.275 306.633Z" fill="#E6E6E6"/>
<path d="M234.674 83.0406C239.888 83.0406 244.115 78.3494 244.115 72.5625C244.115 66.7756 239.888 62.0844 234.674 62.0844C229.46 62.0844 225.233 66.7756 225.233 72.5625C225.233 78.3494 229.46 83.0406 234.674 83.0406Z" fill="#E6E6E6"/>
<path d="M220.134 90.8288V70.9753H222.916V90.8288C223.714 91.187 224.374 91.8421 224.785 92.6817C225.195 93.5213 225.33 94.4932 225.165 95.4308C225.001 96.3684 224.548 97.2134 223.884 97.8209C223.22 98.4284 222.386 98.7606 221.525 98.7606C220.664 98.7606 219.831 98.4284 219.166 97.8209C218.502 97.2134 218.049 96.3684 217.885 95.4308C217.72 94.4932 217.855 93.5213 218.265 92.6817C218.676 91.8421 219.337 91.187 220.134 90.8288Z" fill="#E6E6E6"/>
<path d="M206.689 55.7226C206.694 51.1587 208.329 46.7833 211.237 43.5562C214.144 40.329 218.087 38.5138 222.199 38.5086H247.824C251.937 38.5086 255.882 40.3222 258.791 43.5504C261.699 46.7787 263.333 51.1572 263.333 55.7226C263.333 60.288 261.699 64.6665 258.791 67.8947C255.882 71.123 251.937 72.9366 247.824 72.9366H222.199C218.087 72.9314 214.144 71.1162 211.237 67.889C208.329 64.6619 206.694 60.2864 206.689 55.7226Z" fill="#386BF6"/>
<path d="M170.585 162.323C173.157 125.79 186.312 108.383 177.889 97.4678C169.821 87.012 147.094 89.1719 132.498 99.205C93.1302 126.267 78.7074 234.124 129.368 286.821C177.508 336.896 268.743 320.858 289.018 279.872C293.749 270.309 297.507 253.544 290.583 243.391C273.393 218.184 210.894 263.841 183.106 235.285C166.638 218.361 169.173 182.372 170.585 162.323Z" fill="#3F3D56"/>
<path d="M200.678 144.173C199.722 144.661 198.975 145.544 198.596 146.634C198.218 147.724 198.237 148.935 198.651 150.009C198.738 150.226 198.841 150.434 198.959 150.632L190.51 163.155L194.726 170.149L204.63 151.606C205.332 150.999 205.833 150.151 206.054 149.194C206.276 148.238 206.206 147.227 205.856 146.319C205.652 145.804 205.359 145.339 204.993 144.951C204.628 144.562 204.197 144.257 203.725 144.053C203.253 143.849 202.749 143.751 202.243 143.763C201.737 143.775 201.238 143.898 200.774 144.124C200.742 144.14 200.71 144.156 200.678 144.173Z" fill="#FFB6B6"/>
<path d="M200.671 165.763C201.224 166.307 199.69 166.979 198.067 165.919C197.603 165.612 197.405 165.485 197.353 165.566C197.222 165.769 197.984 167.263 197.781 170.581C197.655 172.561 194.692 176.284 191.327 179.915C186.777 184.826 181.487 189.562 181.487 189.562L179.629 187.912L160.153 170.581L156.866 165.531C157.167 163.537 157.619 161.575 158.217 159.665C159.042 157.022 160.021 154.442 161.15 151.941C161.755 150.58 162.376 149.283 162.97 148.09L173.405 160.852L182.149 171.542C182.149 171.542 184.695 166.991 186.668 165.751C186.919 165.573 187.205 165.464 187.502 165.433C189.495 165.329 189.615 164.124 187.304 161.501C184.993 158.878 187.909 161.327 189.965 160.621C192.021 159.914 189.965 160.621 190.398 158.855C190.831 157.089 196.596 153.545 196.596 153.545L196.836 153.782L201.193 158.05L202.44 159.272C202.44 159.272 201.078 163.418 200.702 164.292C200.327 165.166 200.123 165.213 200.671 165.763Z" fill="#386BF6"/>
<path d="M315.513 246.204L315.726 239.816L293.629 235.868L293.316 245.294L315.513 246.204Z" fill="#FFB6B6"/>
<path d="M311.502 248.127L311.293 237.9L315.232 238.061L321.591 228.607C321.905 228.14 322.346 227.797 322.848 227.627C323.35 227.458 323.888 227.471 324.383 227.664C324.878 227.858 325.305 228.223 325.6 228.704C325.895 229.186 326.044 229.76 326.025 230.343L325.621 242.491L321.655 244.425L325.524 245.403L325.372 249.983L311.502 248.127Z" fill="#2F2E41"/>
<path d="M191.153 248.69L261.14 250.66C261.14 250.66 291.363 252.597 298.454 247.478L305.932 246.43L306.337 234.239C306.337 234.239 301.764 234.276 299.135 232.917C296.506 231.558 298.333 229.894 295.827 231.53C293.32 233.165 293.585 233.362 291.647 232.61C289.709 231.859 200.839 216.824 200.839 216.824L191.153 248.69Z" fill="#2F2E41"/>
<path d="M283.377 243.4L287.447 238.878L273.668 219.304L267.662 225.978L283.377 243.4Z" fill="#FFB6B6"/>
<path d="M279.259 239.466L285.372 231.811L288.161 234.903L298.616 232.772C299.133 232.667 299.666 232.748 300.138 233.002C300.61 233.257 300.997 233.673 301.241 234.189C301.485 234.705 301.574 235.294 301.496 235.87C301.417 236.446 301.174 236.979 300.803 237.391L293.063 245.992L288.97 244.417L291.208 248.054L288.289 251.297L279.259 239.466Z" fill="#2F2E41"/>
<path d="M163.542 206.149L164.237 224.1C165.056 245.232 186.025 258.022 202.284 246.988C202.583 246.785 202.884 246.574 203.186 246.357C203.186 246.357 209.35 244.519 209.163 241.61C208.975 238.7 210.481 237.284 211.814 238.078C213.146 238.871 230.594 211.389 230.594 211.389C230.594 211.389 266.845 231.458 274.842 236.183C274.842 236.183 282.361 223.135 281.816 223.271C281.271 223.408 236.969 188.994 236.969 188.994C236.969 188.994 229.752 180.887 220.799 186.24C220.613 187.026 220.772 187.053 220.772 187.053L191.198 213.799L187.019 204.991L163.542 206.149Z" fill="#2F2E41"/>
<path d="M191.426 183.708C191.37 184.537 191.263 185.361 191.107 186.175C190.894 187.352 190.551 188.496 190.085 189.58C190.085 189.58 190.085 190.79 187.998 194.843C185.911 198.897 188.52 197.16 190.085 200.171C191.65 203.176 190.085 201.792 188.348 203.726C187.847 204.289 187.492 204.99 187.319 205.757C187.145 206.524 187.16 207.328 187.361 208.087C187.361 208.087 164.948 208.104 160.774 206.367C156.6 204.63 155.65 194.843 159.391 193.876C163.127 192.909 158.259 191.948 156.063 189.719C153.866 187.489 158.259 183.841 158.259 183.841C158.259 183.841 156.449 180.373 156.6 168.728C156.621 167.657 156.71 166.589 156.866 165.531C157.167 163.537 157.619 161.575 158.217 159.665C159.042 157.022 160.021 154.442 161.15 151.941C161.755 150.58 162.376 149.283 162.97 148.09C163.064 147.905 163.153 147.725 163.247 147.546C164.379 145.322 165.412 143.504 166.096 142.34C166.623 141.437 166.941 140.927 166.941 140.927L170.739 133.596L183.417 140.192L182.697 150.98L184.883 159.115L185.89 162.862L186.668 165.751L187.868 170.228C187.868 170.228 187.539 170.245 187.93 170.841C189.732 173.501 190.9 176.622 191.327 179.915C191.477 181.172 191.51 182.443 191.426 183.708Z" fill="#386BF6"/>
<path d="M228.039 184.871L227.801 184.785L197.456 173.94L208.638 133.225C208.861 132.415 209.246 131.67 209.766 131.049C210.285 130.428 210.925 129.945 211.637 129.638C212.348 129.331 213.114 129.208 213.875 129.277C214.636 129.346 215.373 129.606 216.031 130.037L235.422 142.752C236.957 143.758 238.125 145.33 238.722 147.194C239.318 149.058 239.306 151.095 238.686 152.95L228.039 184.871Z" fill="#2F2E41"/>
<path d="M228.162 187.459L197.573 176.527L208.755 135.812C208.978 135.001 209.363 134.257 209.883 133.636C210.402 133.014 211.042 132.532 211.754 132.225C212.466 131.918 213.231 131.794 213.992 131.863C214.753 131.932 215.49 132.192 216.148 132.623L236.465 143.881C239.517 145.882 239.446 151.061 238.029 155.311L228.162 187.459Z" fill="#386BF6"/>
<path d="M225.1 190.406C224.395 190.847 223.616 191.121 222.811 191.21C222.006 191.298 221.194 191.2 220.425 190.922L200.873 183.934C199.373 183.39 198.124 182.217 197.393 180.664C196.662 179.112 196.507 177.304 196.96 175.627L206.763 139.935C206.958 139.222 207.281 138.56 207.71 137.986C208.14 137.413 208.668 136.941 209.264 136.598C209.86 136.255 210.512 136.047 211.182 135.987C211.851 135.926 212.525 136.015 213.163 136.248L233.424 143.632C234.39 143.983 235.282 144.546 236.048 145.287C236.814 146.028 237.439 146.932 237.885 147.945C238.331 148.958 238.59 150.06 238.645 151.186C238.701 152.312 238.553 153.439 238.21 154.501L227.73 186.931C227.259 188.403 226.325 189.637 225.1 190.406Z" fill="#3F3D56"/>
<path d="M182.7 133.721C190.435 133.721 196.704 126.763 196.704 118.179C196.704 109.595 190.435 102.636 182.7 102.636C174.966 102.636 168.697 109.595 168.697 118.179C168.697 126.763 174.966 133.721 182.7 133.721Z" fill="#FFB6B6"/>
<path d="M135.346 133.955C136.631 136.72 138.738 138.906 141.31 140.143C142.337 140.662 143.416 141.041 144.524 141.272C144.837 139.893 145.339 138.576 146.011 137.365C145.787 138.729 145.787 140.128 146.011 141.492C147.7 141.646 149.399 141.412 151.003 140.805C152.578 140.21 154.006 139.217 155.175 137.902C156.344 136.588 157.22 134.99 157.736 133.235C158.851 129.115 157.65 124.714 157.555 120.414C157.457 116.113 159.297 110.969 163.144 110.437C166.074 110.031 165.711 110.347 167.816 112.643C164.872 116.274 172.05 132.352 175.902 131.642C178.08 131.24 179.682 129.321 180.113 129.388C182.318 135.382 175.684 143.884 180.946 146.675L180.555 146.102C177.801 141.052 185.951 132.523 183.197 127.473C182.429 126.06 181.63 124.404 182.105 122.841C182.556 121.355 184.84 120.885 185.321 122.237C184.538 119.138 186.725 115.499 189.628 115.183C192.208 114.901 192.059 115.717 194.519 116.461C194.833 115.285 195.286 114.161 195.866 113.116C195.669 114.308 195.645 115.526 195.794 116.726C196.681 116.844 197.578 116.633 198.347 116.126C200.618 114.615 200.685 110.714 199.125 108.34C197.562 105.965 194.944 104.793 192.418 103.906C192.395 97.9768 178.021 95.1385 175.377 100.651C175.105 96.1876 170.495 93.181 166.524 93.9392C162.553 94.6974 159.42 98.2314 157.51 102.17C155.601 106.106 154.653 110.513 153.255 114.706C151.857 118.898 149.859 123.079 146.511 125.566C143.164 128.05 138.19 128.276 135.395 125.056C134.757 126.431 134.421 127.953 134.412 129.499C134.404 131.045 134.724 132.572 135.346 133.955Z" fill="#2F2E41"/>
<path d="M149.715 205.031C150.005 204.773 150.319 204.552 150.653 204.372C156.013 201.411 172.681 193.725 185.715 194.041C210.792 194.647 242.707 225.365 235.279 245.993C229.628 261.689 201.53 270.619 181.019 263.476C152.285 253.471 140.944 212.792 149.715 205.031Z" fill="#3F3D56"/>
<path d="M45.6075 318.108C37.4131 316.393 30.1596 275.419 46.2818 255.24C51.8055 248.326 58.6956 245.317 67.8606 242.516C120.612 226.398 160.846 241.76 166.253 245.51C171.648 249.252 181.105 305.637 169.011 313.618C162.207 318.108 148.72 320.354 142.038 315.115C132.205 307.406 148.709 287.41 141.364 273.951C133.028 258.677 89.1323 253.533 67.1252 268.712C43.6459 284.906 92.0757 327.838 45.6075 318.108Z" fill="#F2F2F2"/>
<path d="M100.394 248.445H69.0884C61.3604 240.225 55.8349 232.303 60.2587 225.727C60.2587 223.837 60.9352 222.024 62.1395 220.687C63.3438 219.35 64.9772 218.6 66.6803 218.6H102.802C104.505 218.6 106.138 219.35 107.343 220.687C108.547 222.024 109.224 223.837 109.224 225.727C110.908 233.22 107.899 240.793 100.394 248.445Z" fill="#CCCCCC"/>
<path d="M94.7717 209.627C94.4746 209.642 94.1806 209.556 93.9293 209.379C93.6781 209.203 93.4819 208.945 93.3672 208.64C93.2524 208.336 93.2248 207.999 93.2881 207.677C93.3513 207.354 93.5023 207.061 93.7207 206.837L93.82 206.399C93.8069 206.364 93.7938 206.329 93.7805 206.294C93.4813 205.509 92.9799 204.84 92.3393 204.371C91.6987 203.902 90.9474 203.653 90.1799 203.656C89.4124 203.66 88.6628 203.914 88.0253 204.389C87.3879 204.863 86.8909 205.536 86.597 206.323C85.4221 209.464 83.9262 212.61 83.5579 215.931C83.3956 217.399 83.4641 218.886 83.7601 220.328C81.0006 213.647 79.5676 206.386 79.5584 199.036C79.5578 197.192 79.6501 195.349 79.8349 193.516C79.9877 192.014 80.1995 190.522 80.4706 189.041C81.9496 181.004 85.1252 173.471 89.7366 167.061C91.9685 165.71 93.7734 163.631 94.9082 161.106C95.3193 160.198 95.6099 159.229 95.7709 158.229C95.5191 158.266 94.8216 154.01 95.0114 153.749C94.6606 153.158 94.0326 152.864 93.6494 152.288C91.7436 149.42 89.1179 149.921 87.7472 153.818C84.819 155.458 84.7906 158.178 86.5874 160.795C87.7304 162.459 87.8875 164.711 88.8905 166.493C88.7873 166.64 88.68 166.782 88.5768 166.928C86.6905 169.62 85.0465 172.511 83.6684 175.559C84.0035 172.144 83.6035 168.69 82.5012 165.481C81.3841 162.49 79.2902 159.971 77.4462 157.385C75.2314 154.279 70.6895 155.634 70.2993 159.572C70.2955 159.61 70.2918 159.648 70.2883 159.686C70.5621 159.858 70.8303 160.04 71.0926 160.232C71.4221 160.476 71.6775 160.826 71.8252 161.234C71.9729 161.642 72.006 162.09 71.9203 162.52C71.8346 162.949 71.634 163.34 71.3447 163.641C71.0555 163.941 70.6912 164.138 70.2995 164.205L70.2594 164.212C70.3569 165.308 70.5294 166.393 70.7753 167.46C68.4097 177.613 73.5168 181.311 80.809 181.478C80.97 181.569 81.1269 181.661 81.2878 181.748C79.9032 186.103 79.0346 190.639 78.7041 195.243C78.5169 197.959 78.5279 200.688 78.7371 203.402L78.7247 203.306C78.1963 200.288 76.7458 197.564 74.6179 195.596C71.4575 192.715 66.9925 191.653 63.583 189.337C63.2206 189.079 62.7993 188.941 62.3687 188.94C61.9381 188.939 61.5162 189.075 61.1527 189.331C60.7892 189.587 60.4993 189.953 60.3173 190.386C60.1352 190.819 60.0685 191.301 60.125 191.775C60.1296 191.809 60.1343 191.843 60.139 191.876C60.6472 192.106 61.1421 192.371 61.6207 192.669C61.8946 192.84 62.1627 193.022 62.425 193.215C62.7546 193.459 63.0099 193.808 63.1576 194.216C63.3053 194.625 63.3385 195.073 63.2527 195.502C63.167 195.932 62.9664 196.323 62.6772 196.623C62.388 196.924 62.0236 197.121 61.6319 197.188L61.5918 197.195C61.5629 197.199 61.5381 197.204 61.5093 197.208C62.3777 199.51 63.5966 201.628 65.1125 203.471C66.5916 212.334 72.9445 213.175 79.74 210.594H79.7442C80.4898 214.19 81.5701 217.69 82.9677 221.038H94.4831C94.5244 220.896 94.5616 220.75 94.5987 220.608C93.5328 220.682 92.4627 220.611 91.4123 220.397C92.2667 219.234 93.1211 218.061 93.9755 216.897C93.9945 216.875 94.0124 216.853 94.0291 216.828C94.4625 216.233 94.9 215.642 95.3334 215.047L95.3336 215.046C95.3567 213.22 95.1676 211.399 94.7717 209.627Z" fill="#CCCCCC"/>
<path d="M134.049 246.583C134.24 247.2 134.602 247.734 135.083 248.109C135.565 248.483 136.141 248.679 136.729 248.667L148.213 248.339C148.806 248.326 149.378 248.101 149.846 247.697C150.313 247.293 150.65 246.732 150.806 246.098L152.431 226.811C153.008 227.1 153.636 227.244 154.269 227.23C155.379 227.199 156.433 226.679 157.198 225.786C157.964 224.893 158.378 223.698 158.35 222.466C158.323 221.233 157.855 220.064 157.05 219.214C156.245 218.364 155.169 217.905 154.058 217.936C153.805 217.935 153.553 217.964 153.306 218.022C153.037 217.699 152.71 217.442 152.346 217.268C151.982 217.094 151.589 217.006 151.193 217.011L133.527 217.517C133.381 217.523 133.235 217.543 133.091 217.577C132.704 217.657 132.336 217.828 132.014 218.079C131.691 218.33 131.42 218.655 131.22 219.032C131.02 219.409 130.895 219.829 130.853 220.264C130.812 220.699 130.854 221.138 130.979 221.553L134.049 246.583ZM152.765 225.501L153.921 220.905C154.053 220.374 154.056 219.814 153.93 219.281C153.986 219.281 154.036 219.251 154.092 219.251C154.884 219.233 155.651 219.565 156.224 220.173C156.797 220.782 157.129 221.618 157.148 222.498C157.166 223.378 156.87 224.23 156.323 224.867C155.777 225.505 155.025 225.876 154.232 225.899C153.719 225.917 153.212 225.779 152.765 225.501Z" fill="#CCCCCC"/>
<path d="M133.091 217.577C133.468 219.965 137.699 221.644 142.787 221.353C147.466 221.113 151.291 219.29 151.992 217.129C151.733 217.044 151.463 217.004 151.193 217.011L133.527 217.517C133.381 217.523 133.235 217.543 133.091 217.577Z" fill="white"/>
<path d="M0.615047 319.013L387.385 319.189C387.548 319.189 387.704 319.117 387.82 318.989C387.935 318.861 388 318.687 388 318.506C388 318.325 387.935 318.152 387.82 318.024C387.704 317.896 387.548 317.824 387.385 317.824L0.615047 317.647C0.451926 317.647 0.295487 317.719 0.180143 317.847C0.0647985 317.975 0 318.149 0 318.33C0 318.511 0.0647985 318.685 0.180143 318.813C0.295487 318.941 0.451926 319.013 0.615047 319.013Z" fill="#CACACA"/>
<path d="M217.542 166.452C216.49 166.494 215.495 166.991 214.768 167.835C214.041 168.68 213.64 169.806 213.649 170.974C213.655 171.212 213.678 171.448 213.718 171.681L201.58 179.635L203.049 187.891L218.616 175C219.474 174.739 220.23 174.17 220.766 173.381C221.302 172.593 221.588 171.63 221.579 170.642C221.569 170.08 221.46 169.526 221.257 169.011C221.054 168.496 220.761 168.031 220.396 167.641C220.031 167.252 219.601 166.946 219.129 166.741C218.658 166.536 218.154 166.437 217.648 166.448C217.613 166.448 217.577 166.45 217.542 166.452Z" fill="#FFB6B6"/>
<path d="M207.599 185.413C207.274 184.93 207.134 184.728 207.061 184.783C206.871 184.911 207.053 186.616 205.717 189.589C203.835 193.766 184.102 200.162 184.102 200.162L181.672 195.226L170.986 173.532L167.303 156.143C167.174 155.537 167.111 154.916 167.116 154.293C170.4 151.728 173.888 149.5 177.536 147.636C178.994 148.554 180.105 150.023 180.667 151.776L188.023 174.668L190.958 183.808C190.958 183.808 196.136 179.698 198.014 180.452C199.889 181.211 200.422 180.147 199.197 176.74C197.971 173.333 199.811 176.84 201.952 177.063C204.097 177.289 201.952 177.063 202.965 175.617C203.978 174.172 210.53 173.358 210.53 173.358L210.669 173.681L213.208 179.477L213.935 181.143C213.935 181.143 211.243 184.384 210.594 185.03C209.941 185.681 209.74 185.636 210.059 186.377C210.374 187.115 208.726 187.081 207.599 185.413Z" fill="#386BF6"/>
</g>
<defs>
<clipPath id="clip0_6_153">
<rect width="388" height="319" fill="white" transform="translate(0 0.526855)"/>
</clipPath>
</defs>
</svg>
